<svg width="3" height="3" viewBox="0 0 3 3" fill="none" xmlns="http://www.w3.org/2000/svg">
<path d="M0.798233 2.57313C0.994165 2.66502 1.21101 2.7022 1.42056 2.67983C1.63011 2.65747 1.82268 2.57659 1.97319 2.44773C2.17169 2.28091 2.28983 2.04658 2.3045 1.7906C2.44091 1.78023 2.56933 1.73696 2.67719 1.66503C2.78505 1.59309 2.86866 1.49496 2.9198 1.38024C2.96825 1.2861 2.99531 1.18258 2.99943 1.07562C3.00355 0.968658 2.98464 0.860376 2.94379 0.756994C2.90294 0.653611 2.84096 0.557167 2.76141 0.473213C2.68185 0.389259 2.5863 0.319448 2.48025 0.267794C2.20632 0.100365 1.89135 0.00736242 1.57432 0.000299702C1.2573 -0.00676298 0.952122 0.0724186 0.696582 0.228053C0.425531 0.394795 0.216552 0.632413 0.0934421 0.91384C0.0239811 1.07192 -0.00735931 1.2444 0.00147883 1.41998C0.010317 1.59557 0.0591303 1.77028 0.144724 1.93269C0.292418 2.19759 0.52028 2.42089 0.798233 2.57313Z" fill="#004422"/>
</svg>
