<svg width="6" height="9" viewBox="0 0 6 9" fill="none" xmlns="http://www.w3.org/2000/svg">
<path d="M4.70846 8.97753C5.52019 9.12769 5.98749 8.32984 5.99942 7.54348C6.02349 6.46932 5.29366 5.48229 4.66532 4.79791C4.03698 4.11353 3.50106 3.53026 2.96042 2.88968C2.50126 1.79186 1.32946 -1.29874 0.22555 0.607472C-0.252846 1.43243 0.129846 2.56226 0.452642 3.28778C1.00672 4.62343 1.68646 5.8849 2.48185 7.05363C2.9641 7.73362 3.88141 8.81318 4.70846 8.97753ZM1.96799 4.93646C1.56732 4.26751 1.2032 3.57171 0.8773 2.85228C0.684686 2.47657 0.577082 2.05104 0.562623 1.60786C0.841137 0.772324 1.12228 0.515477 1.41159 0.82376C1.40159 0.833123 1.3936 0.844775 1.38829 0.857744C1.38298 0.870714 1.38051 0.884624 1.38109 0.898315C1.68941 2.40814 2.40967 3.74877 3.45168 4.75232C4.0201 5.2705 4.53022 5.8586 4.9732 6.50639C5.18892 6.81877 5.32967 7.18805 5.38411 7.58446L4.53826 8.27489C4.29484 8.30188 3.73791 7.61507 3.57491 7.44551C2.91463 6.71656 2.37241 5.86993 1.96799 4.93646Z" fill="#004422"/>
</svg>
