<svg width="181" height="181" viewBox="0 0 181 181" fill="none" xmlns="http://www.w3.org/2000/svg">
<circle cx="90.2486" cy="90.2486" r="90.2486" fill="#009944"/>
<mask id="mask0_48_1968" style="mask-type:alpha" maskUnits="userSpaceOnUse" x="1" y="1" width="180" height="180">
<circle cx="90.8352" cy="90.8352" r="89.662" fill="#AA1234"/>
</mask>
<g mask="url(#mask0_48_1968)">
<path d="M45.267 141.883L121.64 115.34L161.034 154.568L109.493 206.109L45.267 141.883Z" fill="#004422"/>
</g>
<path d="M108.433 19.6083C116.745 32.0102 109.354 38.2949 101.059 41.9819C77.2602 50.613 64.607 53.7972 60.2498 59.244C55.5572 64.741 60.501 70.3051 63.7694 71.981C69.8699 75.3999 77.9869 79.383 81.2829 80.9472C85.1373 83.2097 81.7854 85.3046 80.445 87.0643C79.1877 89.243 82.2047 90.9469 84.2158 92.0921C87.7955 94.1617 89.2907 95.6751 89.7527 96.4279C89.8896 96.6508 89.98 96.9005 90.0831 97.1409C90.6443 98.4502 90.6029 99.8248 90.5005 100.388C93.5172 96.4998 89.7464 92.3435 87.4839 90.7514C84.8694 88.4721 87.7353 85.6119 89.495 84.4667C92.3776 82.3885 92.3438 81.031 91.7575 80.1092C89.0757 76.8412 84.0203 75.4725 82.2885 74.9139C74.11 72.3665 72.8474 68.8805 73.2385 67.456C74.5122 64.0371 80.1377 62.8472 82.7913 62.6796C101.293 60.1992 108.013 58.406 118.321 51.2833C129.381 42.7361 115.835 26.5076 108.433 19.6083Z" fill="white"/>
<rect x="135.75" y="142.855" width="91.0028" height="5.04135" rx="2.52067" transform="rotate(-180 135.75 142.855)" fill="white"/>
<path d="M131.096 136.263H49.4008C49.4008 121.021 61.7569 108.6 76.9989 108.6H103.498C118.74 108.6 131.096 121.021 131.096 136.263Z" fill="white"/>
<path d="M86.4778 105.667C86.4778 104.973 87.0405 104.41 87.7347 104.41H92.7625C93.4567 104.41 94.0195 104.973 94.0195 105.667C94.0195 106.361 93.4567 106.924 92.7625 106.924H87.7347C87.0405 106.924 86.4778 106.361 86.4778 105.667Z" fill="white"/>
</svg>
