<svg width="5" height="9" viewBox="0 0 5 9" fill="none" xmlns="http://www.w3.org/2000/svg">
<path d="M1.66147 0.00191444C1.57007 0.0114247 1.48711 0.0451688 1.42301 0.0989154C1.3589 0.152662 1.31652 0.224021 1.30116 0.304023C1.28579 0.384024 1.29814 0.469108 1.33665 0.548601C1.37517 0.628094 1.43814 0.698455 1.51765 0.750845C1.94885 1.01682 2.39611 1.25919 2.85651 1.4764C3.09286 1.72032 3.26726 2.00369 3.3656 2.30356C3.46393 2.60342 3.48342 2.91135 3.4225 3.20239C3.22264 4.04148 2.96522 3.99269 2.22233 4.56919C2.13636 4.63903 1.98289 4.61662 1.90198 4.72083C1.80902 4.81607 1.74415 4.93136 1.71216 5.05812C1.68016 5.18488 1.68189 5.31985 1.7172 5.453C1.7597 5.59359 1.82262 5.73071 1.90429 5.86075L2.08974 6.17897C2.64316 6.93048 2.14909 7.36646 0.593675 7.49739C0.245669 7.22575 -0.204598 7.67157 0.101839 7.97467C0.322898 8.1723 0.582876 8.33145 0.865125 8.44193C1.14737 8.55242 1.4457 8.61181 1.74098 8.61631C2.03627 8.62081 2.32203 8.57031 2.57998 8.46805C2.83794 8.36579 3.06241 8.21403 3.23903 8.02247C3.44255 7.84061 3.581 7.60788 3.64019 7.34819C3.69939 7.0885 3.67719 6.8112 3.57585 6.54473C3.50704 6.26563 3.37279 5.99583 3.18215 5.75356C3.16668 5.6691 3.1322 5.58628 3.08084 5.51016C4.41369 5.17507 5.07711 3.48362 4.99288 2.31019C4.91912 0.737141 3.26798 -0.0434933 1.66147 0.00191444Z" fill="#004422"/>
</svg>
