<svg width="5" height="12" viewBox="0 0 5 12" fill="none" xmlns="http://www.w3.org/2000/svg">
<path d="M4.29948 0.0262774C2.39941 -0.251479 0.946258 1.73009 0.298602 3.29167C-0.00865525 3.90804 -0.0816695 4.61509 0.0929533 5.28315C0.267576 5.95122 0.678129 6.53552 1.24932 6.92891C0.755851 7.18727 0.375941 7.61747 0.181809 8.13775C-0.00483774 8.81993 0.0753951 9.54845 0.406378 10.1769C0.75949 10.8504 1.33006 11.387 2.02583 11.6999C2.72159 12.0127 3.50188 12.0835 4.24052 11.9008C4.46728 11.8558 4.46773 11.4941 4.22633 11.4901C3.69122 11.5011 3.16153 11.375 2.68815 11.124C2.21478 10.8729 1.81363 10.5054 1.52322 10.0566C1.39658 9.86651 1.31083 9.65257 1.27138 9.42829C1.23194 9.20401 1.23966 8.97427 1.29407 8.7536C1.34847 8.53293 1.44838 8.32612 1.58745 8.14626C1.72653 7.96639 1.90175 7.81738 2.10205 7.70864C2.26213 7.5932 2.44126 7.53726 2.61039 7.39968C2.67114 7.34145 2.71841 7.27076 2.74898 7.19247C2.77955 7.11418 2.79269 7.03014 2.78747 6.94614C2.78226 6.86214 2.75883 6.78016 2.71878 6.70585C2.67874 6.63153 2.62302 6.56663 2.55549 6.51562C1.89051 6.01951 1.25507 5.85427 1.21156 4.79393C1.2285 4.19797 1.41672 3.6202 1.75396 3.12897C2.38877 2.09074 3.32937 1.27276 4.44892 0.78532C4.52376 0.743637 4.58339 0.679495 4.61934 0.602C4.65529 0.524504 4.66574 0.43759 4.64921 0.353584C4.63267 0.269579 4.58998 0.192749 4.5272 0.133997C4.46442 0.0752468 4.38475 0.0375592 4.29948 0.0262774Z" fill="#004422"/>
</svg>
