<svg width="28" height="28" viewBox="0 0 28 28" fill="none" xmlns="http://www.w3.org/2000/svg">
<path d="M20.4167 5.25C18.1417 5.25 15.6917 5.71667 14 7C12.3084 5.71667 9.85837 5.25 7.58337 5.25C5.89171 5.25 4.09504 5.50667 2.59004 6.17167C1.73837 6.55667 1.16671 7.385 1.16671 8.33V21.49C1.16671 23.0067 2.59004 24.1267 4.06004 23.7533C5.20337 23.4617 6.41671 23.3333 7.58337 23.3333C9.40337 23.3333 11.34 23.6367 12.9034 24.4067C13.6034 24.7567 14.3967 24.7567 15.085 24.4067C16.6484 23.625 18.585 23.3333 20.405 23.3333C21.5717 23.3333 22.785 23.4617 23.9284 23.7533C25.3984 24.1383 26.8217 23.0183 26.8217 21.49V8.33C26.8217 7.385 26.25 6.55667 25.3984 6.17167C23.905 5.50667 22.1084 5.25 20.4167 5.25ZM24.5 20.1017C24.5 20.8367 23.8234 21.3733 23.1 21.245C22.225 21.0817 21.315 21.0117 20.4167 21.0117C18.4334 21.0117 15.575 21.77 14 22.7617V9.33333C15.575 8.34167 18.4334 7.58333 20.4167 7.58333C21.49 7.58333 22.5517 7.68833 23.5667 7.91C24.1034 8.02667 24.5 8.505 24.5 9.05333V20.1017Z" fill="#009944"/>
</svg>
