<svg width="18" height="18" viewBox="0 0 18 18" fill="none" xmlns="http://www.w3.org/2000/svg">
<path fill-rule="evenodd" clip-rule="evenodd" d="M0 3C0 2.44772 0.447715 2 1 2H12C12.5523 2 13 2.44772 13 3C13 3.55228 12.5523 4 12 4H1C0.447715 4 0 3.55228 0 3Z" fill="#40484E"/>
<path fill-rule="evenodd" clip-rule="evenodd" d="M0.125 9C0.125 8.44772 0.572715 8 1.125 8H16.875C17.4273 8 17.875 8.44772 17.875 9C17.875 9.55228 17.4273 10 16.875 10H1.125C0.572715 10 0.125 9.55228 0.125 9Z" fill="#40484E"/>
<path fill-rule="evenodd" clip-rule="evenodd" d="M0 15C0 14.4477 0.447715 14 1 14H12C12.5523 14 13 14.4477 13 15C13 15.5523 12.5523 16 12 16H1C0.447715 16 0 15.5523 0 15Z" fill="#40484E"/>
</svg>
