<svg width="283" height="69" viewBox="0 0 283 69" fill="none" xmlns="http://www.w3.org/2000/svg">
<rect y="3.84168" width="34.5792" height="61.4742" rx="11.5187" fill="#EEEEEE"/>
<rect x="37.4625" y="8.64446" width="14.0478" height="24.9739" rx="4.67947" fill="#EEEEEE"/>
<rect x="37.4625" y="35.5394" width="14.0478" height="24.9739" rx="4.67947" fill="#EEEEEE"/>
<rect x="92.2111" y="51.8685" width="34.5792" height="111.422" rx="11.5187" transform="rotate(-90 92.2111 51.8685)" fill="#EEEEEE"/>
<rect x="108.54" y="14.0477" width="14.0478" height="24.9739" rx="4.67947" transform="rotate(-90 108.54 14.0477)" fill="#EEEEEE"/>
<rect x="108.54" y="68.798" width="14.0478" height="24.9739" rx="4.67947" transform="rotate(-90 108.54 68.798)" fill="#EEEEEE"/>
<rect x="135.436" y="14.0477" width="14.0478" height="24.9739" rx="4.67947" transform="rotate(-90 135.436 14.0477)" fill="#EEEEEE"/>
<rect x="135.436" y="68.798" width="14.0478" height="24.9739" rx="4.67947" transform="rotate(-90 135.436 68.798)" fill="#EEEEEE"/>
<rect x="162.331" y="14.0477" width="14.0478" height="24.9739" rx="4.67947" transform="rotate(-90 162.331 14.0477)" fill="#EEEEEE"/>
<rect x="162.331" y="68.798" width="14.0478" height="24.9739" rx="4.67947" transform="rotate(-90 162.331 68.798)" fill="#EEEEEE"/>
<rect x="283" y="65.316" width="34.5792" height="61.4742" rx="11.5187" transform="rotate(-180 283 65.316)" fill="#EEEEEE"/>
<rect x="245.537" y="60.5132" width="14.0478" height="24.9739" rx="4.67947" transform="rotate(-180 245.537 60.5132)" fill="#EEEEEE"/>
<rect x="245.537" y="33.6182" width="14.0478" height="24.9739" rx="4.67947" transform="rotate(-180 245.537 33.6182)" fill="#EEEEEE"/>
</svg>
