<svg width="5" height="10" viewBox="0 0 5 10" fill="none" xmlns="http://www.w3.org/2000/svg">
<path d="M3.88684 9.95024C2.2864 8.67868 1.0979 7.46587 0.473273 5.32646C-0.0120113 3.6411 -0.474096 1.48372 0.985965 0.0283798C1.01241 0.00950012 1.04276 -0.000424013 1.07287 -4.57625e-05C1.10298 0.000332477 1.13136 0.010991 1.15414 0.030489C1.17692 0.0499874 1.19298 0.0773669 1.2001 0.108859C1.20722 0.140352 1.20506 0.17442 1.19392 0.206398C0.277283 1.97702 0.982958 4.09892 1.54175 5.71298C2.17522 7.18684 3.07936 8.4811 4.20253 9.52187C4.25046 9.56277 4.27982 9.62456 4.28411 9.69365C4.28841 9.76274 4.2673 9.83347 4.22544 9.89027C4.18358 9.94708 4.12438 9.9853 4.06088 9.99655C3.99738 10.0078 3.93478 9.99114 3.88684 9.95024Z" fill="#004422"/>
</svg>
