<svg width="220" height="167" viewBox="0 0 220 167" fill="none" xmlns="http://www.w3.org/2000/svg">
<g clip-path="url(#clip0_48_4384)">
<path d="M88.033 34.632H87.2304V12.696C87.2304 11.0287 86.9013 9.37778 86.2618 7.83744C85.6223 6.29709 84.685 4.8975 83.5033 3.71857C82.3217 2.53964 80.9189 1.60446 79.375 0.966427C77.8312 0.328394 76.1765 1.41263e-06 74.5054 0H27.9246C24.5497 -6.41899e-06 21.3131 1.33759 18.9267 3.71854C16.5403 6.09949 15.1996 9.32875 15.1996 12.6959V133.039C15.1996 134.706 15.5287 136.357 16.1682 137.897C16.8077 139.437 17.745 140.837 18.9266 142.016C20.1083 143.195 21.5111 144.13 23.0549 144.768C24.5988 145.406 26.2535 145.734 27.9246 145.734H74.5053C77.8802 145.734 81.1169 144.397 83.5033 142.016C85.8897 139.635 87.2304 136.406 87.2304 133.039V50.2464H88.033V34.632Z" fill="#3F3D56"/>
<path d="M75.0188 3.30298H68.9385C69.2181 3.98695 69.3249 4.72903 69.2493 5.46385C69.1738 6.19867 68.9182 6.90368 68.5053 7.51677C68.0923 8.12986 67.5346 8.63221 66.8812 8.97957C66.2278 9.32694 65.4988 9.50865 64.7584 9.50871H38.0729C37.3325 9.50865 36.6035 9.32694 35.9501 8.97958C35.2967 8.63221 34.739 8.12986 34.326 7.51677C33.913 6.90368 33.6575 6.19868 33.582 5.46385C33.5064 4.72903 33.6132 3.98695 33.8928 3.30298H28.2137C26.9658 3.30298 25.7301 3.54822 24.5771 4.02469C23.4242 4.50116 22.3766 5.19954 21.4942 6.07995C20.6117 6.96036 19.9118 8.00556 19.4342 9.15587C18.9566 10.3062 18.7108 11.5391 18.7108 12.7842V132.95C18.7108 134.195 18.9566 135.428 19.4342 136.578C19.9117 137.729 20.6117 138.774 21.4941 139.654C22.3766 140.535 23.4242 141.233 24.5771 141.71C25.7301 142.186 26.9658 142.431 28.2137 142.431H75.0188C76.2668 142.431 77.5025 142.186 78.6554 141.71C79.8084 141.233 80.856 140.535 81.7384 139.654C82.6208 138.774 83.3208 137.729 83.7984 136.578C84.2759 135.428 84.5217 134.195 84.5217 132.95V12.7842C84.5217 11.5391 84.2759 10.3062 83.7984 9.15587C83.3208 8.00556 82.6208 6.96036 81.7384 6.07995C80.856 5.19954 79.8084 4.50116 78.6554 4.02469C77.5025 3.54822 76.2668 3.30298 75.0188 3.30298Z" fill="white"/>
<path d="M102.963 145.755H0.269537C0.198051 145.755 0.129493 145.727 0.0789453 145.676C0.0283973 145.626 0 145.558 0 145.486C0 145.415 0.0283973 145.346 0.0789453 145.296C0.129493 145.246 0.198051 145.217 0.269537 145.217H102.963C103.035 145.217 103.103 145.246 103.154 145.296C103.204 145.346 103.233 145.415 103.233 145.486C103.233 145.558 103.204 145.626 103.154 145.676C103.103 145.727 103.035 145.755 102.963 145.755Z" fill="#CBCBCB"/>
<path d="M51.6163 92.9605C64.187 92.9605 74.3776 82.7932 74.3776 70.2511C74.3776 57.7091 64.187 47.5417 51.6163 47.5417C39.0455 47.5417 28.8549 57.7091 28.8549 70.2511C28.8549 82.7932 39.0455 92.9605 51.6163 92.9605Z" fill="#009944"/>
<path d="M49.3608 78.9141C48.8487 78.915 48.3502 78.7497 47.9405 78.4432L47.9151 78.4242L42.5659 74.3416C42.3182 74.1521 42.1103 73.9157 41.9541 73.6461C41.7979 73.3764 41.6964 73.0787 41.6555 72.7699C41.6147 72.4611 41.6351 72.1474 41.7158 71.8465C41.7965 71.5456 41.9357 71.2635 42.1257 71.0163C42.3156 70.7691 42.5525 70.5617 42.8228 70.4059C43.093 70.25 43.3914 70.1488 43.7009 70.108C44.0104 70.0673 44.3249 70.0877 44.6265 70.1682C44.9281 70.2486 45.2108 70.3876 45.4585 70.5771L48.9233 73.228L57.1108 62.5709C57.3007 62.3238 57.5375 62.1165 57.8076 61.9607C58.0778 61.8049 58.3761 61.7038 58.6854 61.663C58.9948 61.6222 59.3092 61.6426 59.6106 61.7231C59.9121 61.8035 60.1947 61.9425 60.4423 62.1319L60.443 62.1324L60.3922 62.2028L60.4444 62.1324C60.944 62.5155 61.2709 63.0807 61.3533 63.704C61.4357 64.3272 61.2669 64.9577 60.8839 65.4569L51.2536 77.9864C51.0308 78.2751 50.7444 78.5087 50.4165 78.6691C50.0886 78.8295 49.728 78.9124 49.3628 78.9113L49.3608 78.9141Z" fill="white"/>
<path d="M187.124 147.987C187.401 147.541 187.727 147.126 188.096 146.752C188.249 146.594 188.409 146.446 188.575 146.301C189.581 145.408 190.808 144.798 192.129 144.534C193.45 144.27 194.818 144.362 196.091 144.8C197.365 145.239 198.499 146.008 199.376 147.028C200.253 148.048 200.842 149.283 201.082 150.606C202.193 146.504 199.299 142.464 196.39 139.361C193.479 136.259 190.152 132.856 190.169 128.605C190.177 126.239 191.337 124.129 193.088 122.565C193.142 122.517 193.196 122.47 193.251 122.424C195.367 120.614 198.09 119.668 200.876 119.773C206.05 120.05 210.569 123.52 213.707 127.636C218.758 134.258 220.971 143.555 217.435 151.094C214.325 157.725 207.691 161.662 200.922 164.827C199.976 165.27 199.033 165.698 198.091 166.114C198.085 166.115 198.078 166.12 198.072 166.122C198.027 166.141 197.981 166.161 197.939 166.182C197.745 166.267 197.55 166.353 197.358 166.437L197.447 166.496L197.725 166.675C197.629 166.617 197.533 166.56 197.437 166.502C197.408 166.484 197.378 166.468 197.349 166.45C194.024 164.46 190.653 162.354 188.356 159.246C185.974 156.02 185.016 151.398 187.124 147.987Z" fill="#F1F1F1"/>
<path d="M209.308 140.494C210.044 142.165 210.533 143.935 210.757 145.746C210.934 147.362 210.867 148.994 210.56 150.59C209.9 153.869 208.46 156.943 206.361 159.551C204.778 161.532 202.95 163.304 200.922 164.827C199.976 165.27 199.033 165.698 198.091 166.114C198.085 166.115 198.078 166.12 198.072 166.121C198.027 166.141 197.981 166.161 197.939 166.182C197.745 166.267 197.55 166.353 197.358 166.437L197.447 166.495L197.725 166.675C197.629 166.617 197.533 166.56 197.437 166.502C197.408 166.484 197.378 166.468 197.349 166.45C198.081 163.896 198.188 161.205 197.663 158.601C197.137 155.998 195.994 153.558 194.328 151.486C192.654 149.44 190.519 147.818 188.096 146.752C188.249 146.594 188.409 146.446 188.575 146.301C189.507 146.729 190.401 147.238 191.244 147.822C194.259 149.902 196.524 152.894 197.702 156.358C198.753 159.5 198.885 162.876 198.08 166.089C198.247 165.981 198.415 165.869 198.578 165.758C201.675 163.674 204.53 161.171 206.68 158.101C208.535 155.507 209.721 152.498 210.136 149.339C210.548 145.887 209.683 142.494 208.138 139.414C206.433 136.12 204.284 133.073 201.751 130.359C199.207 127.571 196.331 125.103 193.186 123.012C193.116 122.964 193.066 122.891 193.047 122.808C193.029 122.725 193.043 122.638 193.088 122.565C193.121 122.498 193.18 122.448 193.251 122.424C193.287 122.415 193.324 122.414 193.361 122.421C193.397 122.429 193.431 122.444 193.461 122.467C193.849 122.725 194.234 122.986 194.614 123.254C197.781 125.492 200.657 128.113 203.176 131.057C205.61 133.896 207.826 137.049 209.308 140.494Z" fill="white"/>
<path d="M141.518 10.5446C144.188 10.5446 146.352 8.38536 146.352 5.72177C146.352 3.05819 144.188 0.898926 141.518 0.898926C138.848 0.898926 136.684 3.05819 136.684 5.72177C136.684 8.38536 138.848 10.5446 141.518 10.5446Z" fill="#F1F1F1"/>
<path d="M201.625 75.0856C203.252 75.0856 204.572 73.7692 204.572 72.1452C204.572 70.5213 203.252 69.2048 201.625 69.2048C199.997 69.2048 198.678 70.5213 198.678 72.1452C198.678 73.7692 199.997 75.0856 201.625 75.0856Z" fill="#F1F1F1"/>
<path d="M115.373 83.1533C117.001 83.1533 118.32 81.8368 118.32 80.2129C118.32 78.5889 117.001 77.2725 115.373 77.2725C113.745 77.2725 112.426 78.5889 112.426 80.2129C112.426 81.8368 113.745 83.1533 115.373 83.1533Z" fill="#F1F1F1"/>
<path d="M117.037 167H219.73C219.802 167 219.871 166.972 219.921 166.921C219.972 166.871 220 166.802 220 166.731C220 166.66 219.972 166.591 219.921 166.541C219.871 166.49 219.802 166.462 219.73 166.462H117.037C116.966 166.462 116.897 166.49 116.846 166.541C116.796 166.591 116.767 166.66 116.767 166.731C116.767 166.802 116.796 166.871 116.846 166.921C116.897 166.972 116.966 167 117.037 167Z" fill="#CBCBCB"/>
<path d="M208.398 25.9871C208.532 25.0319 208.311 24.0606 207.776 23.2571C207.241 22.4537 206.43 21.8739 205.495 21.6278C204.56 21.3816 203.567 21.4861 202.704 21.9215C201.842 22.3569 201.169 23.0929 200.814 23.9901L192.48 33.5218L194.926 40.3354L203.306 29.1979C203.853 29.3727 204.432 29.4257 205.001 29.3533C205.571 29.2808 206.118 29.0846 206.603 28.7785C207.089 28.4723 207.501 28.0638 207.811 27.5815C208.121 27.0992 208.321 26.555 208.398 25.9871Z" fill="#FFB7B7"/>
<path d="M173.855 63.0752L201.517 33.6206L197.786 27.7021L163.09 56.978L173.855 63.0752Z" fill="#3F3D56"/>
<path d="M167.681 45.1787C173.04 45.1787 177.384 40.8443 177.384 35.4976C177.384 30.1508 173.04 25.8164 167.681 25.8164C162.322 25.8164 157.978 30.1508 157.978 35.4976C157.978 40.8443 162.322 45.1787 167.681 45.1787Z" fill="#2F2E41"/>
<path d="M168.461 30.0286C170.549 27.916 173.076 26.2858 175.863 25.2527C177.653 24.5914 179.6 24.1827 181.471 24.5583C183.342 24.9339 185.111 26.2251 185.633 28.0564C186.059 29.5538 185.619 31.1661 184.956 32.5757C184.294 33.9854 183.41 35.2925 182.874 36.7547C182.328 38.2467 182.164 39.8513 182.396 41.4227C182.629 42.9941 183.251 44.4827 184.207 45.7532C185.163 47.0238 186.421 48.0361 187.868 48.6983C189.315 49.3605 190.905 49.6517 192.494 49.5453C190.656 49.7911 188.962 50.6529 187.165 51.1117C185.368 51.5704 183.248 51.5393 181.913 50.2551C180.5 48.8964 180.472 46.6873 180.54 44.7308C180.642 41.8224 180.743 38.914 180.845 36.0057C180.896 34.5224 180.941 32.9917 180.405 31.6073C179.868 30.2229 178.594 29.0107 177.107 29.0233C175.979 29.0328 174.982 29.7142 174.078 30.3862C173.173 31.0582 172.217 31.7751 171.094 31.875C169.971 31.975 168.689 31.1459 168.773 30.0242L168.461 30.0286Z" fill="#2F2E41"/>
<path d="M130.827 100.502C129.895 100.76 128.901 100.668 128.033 100.244C127.165 99.8199 126.483 99.0926 126.116 98.2001C125.749 97.3076 125.723 96.3119 126.043 95.4016C126.363 94.4913 127.006 93.7298 127.851 93.2612L136.234 83.7727L143.324 85.301L133.352 95.0462C133.597 95.5643 133.726 96.1297 133.728 96.7027C133.73 97.2756 133.607 97.8421 133.366 98.3622C133.125 98.8824 132.773 99.3436 132.335 99.7132C131.896 100.083 131.381 100.352 130.827 100.502H130.827Z" fill="#FFB7B7"/>
<path d="M158.406 66.5323L137.513 92.6983L131.144 89.7811L155.702 51.636L158.406 66.5323Z" fill="#3F3D56"/>
<path d="M141.735 145.543L136.756 145.465L137.355 162.398H141.735L141.735 145.543Z" fill="#FFB7B7"/>
<path d="M142.852 160.971L134.226 160.971H134.226C132.768 160.971 131.37 161.549 130.339 162.577C129.308 163.606 128.729 165.001 128.729 166.455V166.633L142.851 166.634L142.852 160.971Z" fill="#2F2E41"/>
<path d="M174.704 141.052L169.265 144.536L180.145 157.596L183.831 155.235L174.704 141.052Z" fill="#FFB7B7"/>
<path d="M183.999 153.433L176.74 158.082L176.74 158.082C175.513 158.868 174.65 160.108 174.339 161.529C174.029 162.95 174.297 164.436 175.084 165.66L175.181 165.81L187.065 158.198L183.999 153.433Z" fill="#2F2E41"/>
<path d="M176.642 89.3464C176.642 89.3464 164.556 49.2967 160.672 48.7555C156.788 48.2143 150.53 59.0318 150.53 59.0318C142.416 69.3606 134.049 102.818 134.049 102.818C134.049 102.818 147.997 103.689 158.193 109.101C168.388 114.513 180.421 108.827 180.421 108.827L176.642 89.3464Z" fill="#3F3D56"/>
<path opacity="0.1" d="M176.642 89.3465C176.642 89.3465 164.556 49.2968 160.672 48.7555C156.788 48.2143 152.119 59.1416 152.119 59.1416C148.076 75.8147 134.049 102.818 134.049 102.818C134.049 102.818 147.997 103.689 158.193 109.101C168.388 114.513 180.421 108.827 180.421 108.827L176.642 89.3465Z" fill="black"/>
<path d="M166.726 77.3637V97.4884L169.1 126.641L180.96 148.692L175.3 152.726L159.127 131.75L152.731 110.922L142.686 157.029L135.139 156.491L140.38 92.5653L150.326 74.5718L166.726 77.3637Z" fill="#2F2E41"/>
<path d="M154.541 57.8987C150.767 61.6636 154.271 65.6974 154.271 65.6974L149.959 75.3786L166.94 79.9502L172.874 53.4942L168.831 49.1915C160.745 48.9226 160.74 48.7554 160.74 48.7554C159.324 50.1387 154.541 57.8987 154.541 57.8987Z" fill="#009944"/>
<path d="M173.558 50.7534C172.786 50.1854 171.91 49.7757 170.979 49.5481C170.048 49.3205 169.081 49.2794 168.134 49.4273C167.187 49.5752 166.278 49.9091 165.462 50.4097C164.645 50.9103 163.936 51.5676 163.375 52.3435C159.106 58.2738 155.159 67.8498 160.598 79.7928C169.33 98.9694 176.93 108.786 180.019 108.785C180.154 108.786 180.288 108.765 180.416 108.723C182.318 108.079 185.067 104.869 185.565 102.04C185.743 101.027 185.701 99.6165 184.487 98.648C181.001 95.8657 174.741 87.2023 172.789 75.7994C171.71 69.4987 173.802 63.7593 175.748 60.0541C176.569 58.521 176.81 56.7438 176.425 55.0482C176.04 53.3527 175.055 51.8523 173.651 50.8223L173.558 50.7534Z" fill="#3F3D56"/>
<path d="M168.18 44.2276C171.641 42.3398 172.913 38.0097 171.021 34.5562C169.129 31.1027 164.789 29.8335 161.328 31.7214C157.866 33.6092 156.594 37.9393 158.486 41.3928C160.379 44.8463 164.719 46.1155 168.18 44.2276Z" fill="#FFB7B7"/>
<path d="M154.709 37.4357H165.023L165.128 35.9583L165.657 37.4357H167.245L167.455 34.5075L168.503 37.4357H171.576V37.2906C171.574 35.2521 170.761 33.2976 169.316 31.8562C167.871 30.4147 165.913 29.6039 163.869 29.6016H162.415C160.372 29.6039 158.413 30.4147 156.968 31.8562C155.524 33.2976 154.711 35.252 154.709 37.2906V37.4357Z" fill="#2F2E41"/>
<path d="M170.018 42.7461L174.419 41.3212V30.657H166.106L166.311 30.862C169.175 33.7155 172.36 43.8394 170.018 42.7461Z" fill="#2F2E41"/>
</g>
<defs>
<clipPath id="clip0_48_4384">
<rect width="220" height="167" fill="white"/>
</clipPath>
</defs>
</svg>
