<svg width="2" height="2" viewBox="0 0 2 2" fill="none" xmlns="http://www.w3.org/2000/svg">
<path d="M0.309257 1.79391C0.452512 1.91527 0.632125 1.98734 0.81948 1.99864C1.00684 2.00994 1.19116 1.95982 1.34309 1.85626C1.45719 1.7756 1.55064 1.67051 1.61652 1.54876C1.68488 1.52473 1.74732 1.48756 1.80021 1.43939C1.8963 1.35821 1.95724 1.24441 1.97126 1.12C1.98527 0.995592 1.95137 0.869415 1.8761 0.765865C1.77973 0.625608 1.66593 0.497317 1.5374 0.384025C1.5374 0.384025 1.47322 0.307438 1.5374 0.384025C1.60157 0.460612 1.5374 0.384025 1.5374 0.384025C1.46788 0.300025 1.3877 0.22492 1.29886 0.160599C1.22028 0.0970183 1.12889 0.05054 1.031 0.0243828C0.933121 -0.00177441 0.831097 -0.00697806 0.731996 0.00912304C0.632895 0.0252241 0.539086 0.0622457 0.457084 0.117629C0.375081 0.173013 0.30684 0.24543 0.257092 0.32986C0.203604 0.385887 0.159768 0.450049 0.127209 0.519958C0.00423926 0.741733 -0.0310801 1.00144 0.0278002 1.25096C0.0673731 1.45314 0.165018 1.6415 0.309257 1.79391Z" fill="#004422"/>
</svg>
