<svg width="3" height="3" viewBox="0 0 3 3" fill="none" xmlns="http://www.w3.org/2000/svg">
<path d="M1.23827 2.99352C1.5237 3.02306 1.81358 2.95326 2.0622 2.79512C2.31082 2.63699 2.50405 2.39952 2.61142 2.12014C2.72017 1.88416 2.74432 1.61833 2.67946 1.37121C2.61459 1.12409 2.46504 0.91219 2.25812 0.774209C2.22729 0.767348 2.1979 0.755322 2.1711 0.738604C2.15189 0.639233 2.11924 0.54357 2.0741 0.454384C1.99953 0.310277 1.88599 0.192474 1.74683 0.114816C1.60767 0.0371572 1.44867 0.00287169 1.2885 0.0159842C1.10027 -0.015628 0.906031 -0.000372667 0.72176 0.0605008C0.555006 0.123324 0.404844 0.227875 0.28502 0.364582C0.165195 0.501289 0.0795366 0.665783 0.0358907 0.843005C-0.0263556 1.1397 -0.00733148 1.44583 0.0907961 1.72662C0.158682 1.95242 0.255254 2.16708 0.378048 2.36511C0.570108 2.68586 0.87911 2.91159 1.23827 2.99352Z" fill="#004422"/>
</svg>
