<svg width="21" height="21" viewBox="0 0 21 21" fill="none" xmlns="http://www.w3.org/2000/svg">
<g clip-path="url(#clip0_48_4898)">
<path d="M18.1033 16.616L18.1033 16.6153L17.2754 5.98044L17.0136 6.00015L17.2753 5.97978L17.2753 5.97983C17.2135 5.16224 16.535 4.51568 15.7195 4.51568H14.3423C14.2459 2.44731 12.5642 0.7874 10.5004 0.7874C8.43663 0.7874 6.75492 2.44731 6.65854 4.51568H5.28134C4.46596 4.51568 3.78716 5.16215 3.72559 5.97869C3.72558 5.9788 3.72557 5.97892 3.72556 5.97903L2.89741 16.6167L2.89736 16.6174C2.82791 17.5404 3.14164 18.4596 3.76005 19.1402C4.37865 19.821 5.25615 20.2124 6.16904 20.2124H14.8317C15.7446 20.2124 16.6221 19.8211 17.2407 19.1402L17.0465 18.9637L17.2407 19.1402C17.8592 18.4595 18.1728 17.5403 18.1033 16.616ZM14.3466 4.77818H14.0841V4.70325L14.3466 4.77818ZM5.32838 6.14774H6.65418V7.24866C6.65418 7.69453 7.01008 8.06468 7.45966 8.06468C7.90923 8.06468 8.26513 7.69453 8.26513 7.24866V6.14774H12.7357V7.24866C12.7357 7.69453 13.0916 8.06468 13.5411 8.06468C13.9907 8.06468 14.3466 7.69453 14.3466 7.24866V6.14774H15.6725L16.4972 16.7415C16.4972 16.7417 16.4972 16.7419 16.4972 16.7421C16.5333 17.2241 16.3763 17.6817 16.0555 18.0349C15.7346 18.388 15.3013 18.5803 14.8317 18.5803H6.16908C5.69949 18.5803 5.2662 18.388 4.94534 18.0349C4.62435 17.6816 4.46747 17.2238 4.50358 16.7432C4.50359 16.7431 4.5036 16.7431 4.5036 16.743L5.32838 6.14774ZM8.27259 4.51568C8.36641 3.34001 9.33423 2.41945 10.5004 2.41945C11.6666 2.41945 12.6344 3.34004 12.7282 4.51568H8.27259Z" fill="#009944" stroke="#009944" stroke-width="0.519947"/>
<path d="M7.54381 13.1753L7.72943 12.9897L7.54381 13.1753L9.03469 14.6662C9.20595 14.8375 9.43099 14.9233 9.65515 14.9233C9.87922 14.9233 10.1043 14.8376 10.2756 14.6662C10.2756 14.6662 10.2757 14.6662 10.2757 14.6661L13.4567 11.4851C13.7994 11.1424 13.7995 10.5868 13.4568 10.2441V10.2441C13.1141 9.90134 12.5585 9.90136 12.2158 10.2441L12.2158 10.2441L9.65519 12.8047L8.78483 11.9343C8.78483 11.9343 8.78482 11.9343 8.78482 11.9343C8.44215 11.5916 7.8865 11.5916 7.54381 11.9343C7.20111 12.277 7.20111 12.8326 7.54381 13.1753Z" fill="#009944" stroke="white" stroke-width="0.519947"/>
</g>
<defs>
<clipPath id="clip0_48_4898">
<rect width="20.7979" height="20.7979" fill="white" transform="scale(1.00972)"/>
</clipPath>
</defs>
</svg>
