<svg width="14" height="11" viewBox="0 0 14 11" fill="none" xmlns="http://www.w3.org/2000/svg">
<path d="M12.9161 3.9918C12.8722 4.72953 12.5687 6.02932 11.6236 6.08809C11.0337 6.12515 10.3932 5.38573 9.86301 5.16879C9.79292 5.14101 9.7169 5.13077 9.6407 5.13884C9.56449 5.14692 9.49008 5.1731 9.42309 5.2154C9.35611 5.25771 9.2983 5.31504 9.25402 5.38307C9.20974 5.4511 9.18016 5.52805 9.16749 5.60811C9.12502 7.06242 7.8815 10.7857 6.43077 8.29875C6.06791 7.67297 5.89386 5.88346 4.83784 6.15935C4.41205 6.26355 4.07039 6.72038 3.65459 6.90821C3.38089 7.06077 3.08063 7.14553 2.77772 7.15574C2.47481 7.16595 2.17763 7.10134 1.90985 6.96704C1.64207 6.83275 1.41109 6.63248 1.2353 6.3822C1.05952 6.13192 0.943791 5.83853 0.897344 5.52542C0.527212 3.78296 0.707309 1.47013 2.21607 0.249874C2.36856 0.129305 2.20768 -0.0717602 2.05724 0.0257842C0.119028 1.26919 -0.432638 4.47209 0.330425 6.47875C0.499521 6.93352 0.782511 7.32614 1.15047 7.61648C1.51844 7.90681 1.95818 8.08445 2.42471 8.13121C2.84689 8.15886 3.27438 8.10761 3.6877 7.97978C3.92297 7.909 4.40568 7.55762 4.75073 7.38061C5.21713 8.92381 6.04904 11.0143 7.88515 10.5247C9.43066 10.1149 10.1496 8.14192 10.2029 6.51704C10.8919 6.95807 11.5537 7.48344 12.4349 7.04055C12.9235 6.73663 13.3289 6.2986 13.6052 5.77613C13.8815 5.25367 14.0176 4.66766 13.9982 4.08453C14.0366 3.36042 12.9531 3.23527 12.9161 3.9918Z" fill="#004422"/>
</svg>
