<svg width="14" height="14" viewBox="0 0 14 14" fill="none" xmlns="http://www.w3.org/2000/svg">
<mask id="mask0_48_7146" style="mask-type:alpha" maskUnits="userSpaceOnUse" x="-3" y="-3" width="20" height="20">
<rect x="-2.37082" y="-2.32627" width="18.6101" height="18.6101" fill="#D9D9D9"/>
</mask>
<g mask="url(#mask0_48_7146)">
<path d="M12.9111 13.9576L8.01112 9.07244C7.62223 9.3826 7.17501 9.62816 6.66945 9.80909C6.1639 9.99002 5.62593 10.0805 5.05556 10.0805C3.6426 10.0805 2.44689 9.59274 1.46845 8.61726C0.489482 7.64127 0 6.44893 0 5.04024C0 3.63156 0.489482 2.43922 1.46845 1.46322C2.44689 0.48774 3.6426 0 5.05556 0C6.46853 0 7.66449 0.48774 8.64346 1.46322C9.6219 2.43922 10.1111 3.63156 10.1111 5.04024C10.1111 5.60889 10.0204 6.14522 9.8389 6.64924C9.65742 7.15327 9.41112 7.59913 9.10001 7.98685L14 12.872L12.9111 13.9576ZM5.05556 8.52964C6.02779 8.52964 6.85431 8.19052 7.53512 7.51229C8.21542 6.83353 8.55557 6.00952 8.55557 5.04024C8.55557 4.07096 8.21542 3.24695 7.53512 2.5682C6.85431 1.88996 6.02779 1.55084 5.05556 1.55084C4.08334 1.55084 3.25682 1.88996 2.576 2.5682C1.89571 3.24695 1.55556 4.07096 1.55556 5.04024C1.55556 6.00952 1.89571 6.83353 2.576 7.51229C3.25682 8.19052 4.08334 8.52964 5.05556 8.52964Z" fill="black" fill-opacity="0.74"/>
</g>
</svg>
