<svg width="5" height="5" viewBox="0 0 5 5" fill="none" xmlns="http://www.w3.org/2000/svg">
<path d="M4.60494 3.61C4.70354 3.13942 4.71216 2.65867 4.63027 2.19744C4.54839 1.7362 4.37773 1.30429 4.12884 0.92837C3.9945 0.6256 3.75604 0.395035 3.45997 0.281655C3.44019 0.269075 3.41841 0.260164 3.39549 0.255269C3.09656 0.0828703 2.7574 -0.00465473 2.40817 0.000478611C2.00109 -0.00844451 1.59202 0.103927 1.22627 0.325149C0.860523 0.546372 0.552371 0.867809 0.335947 1.25386C0.119523 1.63991 0.00327522 2.0755 7.58239e-05 2.5124C-0.00312361 2.94929 0.106853 3.37043 0.317822 3.72917C1.16051 5.11016 3.93711 5.75723 4.60494 3.61ZM2.13852 0.843424C2.32812 0.877207 2.52558 0.861381 2.71449 0.797264C2.94328 0.817569 3.15955 0.900313 3.34299 1.03772C3.52643 1.17514 3.67102 1.36271 3.76318 1.58282L3.8891 1.97421L3.94253 2.21159C3.99548 2.54755 4.00109 2.89343 3.95917 3.238C3.9041 3.45644 3.78886 3.65605 3.62898 3.80997C3.46909 3.96389 3.27222 4.06472 3.06488 4.09889C2.74273 4.18665 2.41077 4.19109 2.0972 4.11184C1.78363 4.0326 1.49771 3.87201 1.2637 3.64371C1.0554 3.44984 0.907906 3.19182 0.838899 2.90058C0.769893 2.60934 0.782301 2.29723 0.874635 2.00167C0.966969 1.70612 1.13531 1.43965 1.35948 1.23421C1.58365 1.02878 1.85414 0.893095 2.13852 0.843424Z" fill="#004422"/>
</svg>
