<svg width="6" height="13" viewBox="0 0 6 13" fill="none" xmlns="http://www.w3.org/2000/svg">
<path d="M3.02032 12.9407C3.66465 12.0941 4.14298 11.1309 4.42869 10.1047C4.94444 8.78658 5.24089 7.39358 5.3057 5.9835C5.30434 4.76351 4.99115 3.57011 4.39685 2.52038C3.75531 1.54499 2.8644 0.767764 1.81773 0.270362C1.80642 0.221593 1.78508 0.175967 1.75513 0.136457C1.72517 0.0969471 1.68727 0.0644387 1.64387 0.0410478C1.60048 0.0176559 1.55258 0.00390734 1.50328 0.000697562C1.45398 -0.00251313 1.4044 0.00488693 1.35777 0.0224146C1.32161 0.00813406 1.28199 0.00481329 1.24366 0.0128516C1.20534 0.0208899 1.16991 0.0399449 1.14162 0.0677423C1.11333 0.0955387 1.09337 0.130901 1.08413 0.169602C1.07489 0.208304 1.07676 0.248708 1.08951 0.285985C0.681377 0.938963 0.420443 1.67407 0.325795 2.43751C0.0850159 3.62409 -0.0229317 4.8324 0.00403417 6.03922C0.106247 8.60481 1.48587 10.5432 2.51747 12.7797C2.53504 12.828 2.56316 12.8715 2.59974 12.9069C2.63631 12.9423 2.6804 12.9687 2.72873 12.9842C2.77705 12.9996 2.82837 13.0038 2.87885 12.9962C2.92934 12.9887 2.97769 12.9697 3.02032 12.9407ZM0.667793 6.75136C0.585089 5.70017 0.638853 4.64017 0.827705 3.59863C0.922012 2.80209 1.08569 2.01448 1.31679 1.24513C1.57751 2.15822 1.95808 3.04568 2.17709 3.97158C2.38871 5.06288 2.51056 6.17167 2.54139 7.28654C2.5499 7.46176 2.82547 7.44759 2.83832 7.27364C2.91797 6.20344 2.86761 5.12953 2.68839 4.07626C2.49876 3.04292 2.11635 2.03524 1.92671 1.0019C3.58863 2.4286 4.71979 4.10107 4.49099 6.53121C4.33853 7.65215 4.06361 8.75432 3.67137 9.81721C3.45878 10.575 3.1832 11.3141 2.84764 12.0263C1.87101 10.4395 0.759947 8.61096 0.662559 6.76415L0.667793 6.75136Z" fill="#004422"/>
</svg>
