<svg width="11" height="14" viewBox="0 0 11 14" fill="none" xmlns="http://www.w3.org/2000/svg">
<path d="M5.38767 6.64999C4.87735 6.64999 4.38793 6.46562 4.02708 6.13743C3.66623 5.80924 3.4635 5.36412 3.4635 4.89999C3.4635 4.43587 3.66623 3.99075 4.02708 3.66256C4.38793 3.33437 4.87735 3.15 5.38767 3.15C5.89799 3.15 6.38741 3.33437 6.74826 3.66256C7.10912 3.99075 7.31184 4.43587 7.31184 4.89999C7.31184 5.12981 7.26207 5.35737 7.16537 5.56969C7.06867 5.78201 6.92694 5.97493 6.74826 6.13743C6.56959 6.29993 6.35747 6.42884 6.12402 6.51678C5.89057 6.60473 5.64036 6.64999 5.38767 6.64999ZM5.38767 0C3.95877 0 2.5884 0.516248 1.57801 1.43518C0.567628 2.3541 0 3.60044 0 4.89999C0 8.57499 5.38767 14 5.38767 14C5.38767 14 10.7753 8.57499 10.7753 4.89999C10.7753 3.60044 10.2077 2.3541 9.19733 1.43518C8.18695 0.516248 6.81657 0 5.38767 0Z" fill="#004422"/>
</svg>
