<svg width="53" height="56" viewBox="0 0 53 56" fill="none" xmlns="http://www.w3.org/2000/svg">
<path d="M37.6059 2.64778C37.1653 1.88873 36.5469 1.24801 35.8038 0.780777C34.9034 0.20054 33.8555 0.211037 32.825 0.0639168C31.4925 -0.0949955 30.1414 0.0433961 28.869 0.469127C27.9513 0.649182 27.0532 0.917435 26.1871 1.27015C23.892 2.24563 21.7326 3.51361 19.7626 5.04259C15.6836 8.1071 11.9987 11.6634 8.79147 15.6308C5.59943 19.5963 2.71691 23.6492 1.07544 28.5237C0.355506 30.6022 -0.00803925 32.7873 0.000141801 34.987C0.0289053 36.8345 0.201571 39.0781 1.41302 40.5858C1.64656 40.9095 1.94608 41.1801 2.29181 41.3797C2.63755 41.5793 3.02165 41.7034 3.41882 41.7438C3.23898 42.0957 3.08906 42.4621 2.97064 42.8391C2.56493 44.0224 1.84607 45.5874 1.86198 46.8334C1.83513 47.2023 1.9552 47.5668 2.19604 47.8476C2.43688 48.1283 2.77894 48.3025 3.14767 48.3322C4.10243 48.3385 5.12317 47.148 5.7281 46.5326C6.19424 45.9122 6.72044 45.3392 7.29907 44.8221C7.39414 46.0787 7.9676 47.2511 8.90132 48.0978C9.19957 48.3459 9.55535 48.5152 9.93602 48.5901C10.3167 48.665 10.7101 48.6431 11.08 48.5265C11.1743 49.1316 11.4089 49.7064 11.7649 50.2048C12.1209 50.7033 12.5886 51.1116 13.1305 51.3973C13.0765 51.6991 13.1068 52.0101 13.2179 52.2959C13.5626 53.1828 14.1794 53.9378 14.9799 54.4525C16.5684 55.5182 18.6377 56.4827 20.5319 55.6888C22.6685 54.7823 24.7494 53.0529 26.514 51.5785C28.6123 49.864 30.5796 48.0096 32.5428 46.1458C34.5061 44.2819 36.6218 42.5825 38.4986 40.5656C40.3754 38.5487 42.3112 36.4068 44.1378 34.2439C47.5749 30.159 50.8992 25.6593 52.4243 20.494C52.8457 19.3903 53.0393 18.2126 52.9934 17.032C52.7461 15.7973 52.2087 14.6391 51.4257 13.6527C50.0819 11.8164 48.3966 10.7188 46.2381 10.9888C46.2299 10.6026 46.1878 10.2178 46.1122 9.83898C45.9396 8.87482 45.5153 7.97329 44.8824 7.22555C44.2694 6.64657 43.5453 6.19811 42.7538 5.9074C43.0517 5.46613 43.2476 4.96406 43.3273 4.43763C43.407 3.9112 43.3684 3.37362 43.2144 2.86389C42.266 0.138095 39.5236 1.6047 37.6059 2.64778ZM1.38265 35.137C1.34544 33.0657 1.6588 31.0032 2.30946 29.0365C3.71936 24.632 6.2313 20.8903 9.06313 17.2874C12.1134 13.4032 15.5857 9.86984 19.4162 6.75218C19.8741 6.37472 20.3382 6.00764 20.8085 5.65095C21.7701 5.01823 22.7714 4.44798 23.8062 3.9437C25.5923 2.99009 27.4697 2.21824 29.4101 1.63975C30.4228 1.34549 31.4851 1.2622 32.5314 1.39505C33.6022 1.55867 34.6701 1.59554 35.5301 2.33185C35.983 2.66933 36.3234 3.13569 36.5067 3.66982C36.69 4.20396 36.7077 4.78097 36.5574 5.32525C36.3356 6.47358 35.9429 7.58213 35.3922 8.61391C34.3445 10.471 33.1566 12.2456 31.8391 13.9221C29.278 17.3481 26.5206 20.6228 23.5806 23.7298C20.582 26.935 17.7602 30.2832 14.665 33.4176C13.197 34.9417 11.6094 36.3461 9.91756 37.6174C8.98722 38.323 7.97401 38.9121 6.90053 39.3717C6.03315 39.7463 4.92106 40.3738 3.96873 40.3999C1.62719 40.4459 1.43035 36.8039 1.38265 35.137ZM17.2681 48.0933C18.421 47.019 19.2967 45.6817 19.8204 44.1955C20.1327 43.5706 20.3458 42.9009 20.4522 42.2104C21.1084 41.9887 21.7124 41.6352 22.227 41.1716L22.3369 41.0754C22.2919 42.0213 22.1056 42.9551 21.784 43.8458C21.096 45.3698 20.0835 46.7251 18.8171 47.8171C17.7332 48.817 16.6889 50.0841 15.2111 50.3973C14.6799 50.573 14.1018 50.5412 13.593 50.3083C13.0842 50.0754 12.6824 49.6585 12.4684 49.1416C12.3159 48.8047 12.1701 48.4705 11.9905 48.1616C12.1613 48.0591 12.3225 47.9412 12.472 47.8095C12.772 47.5557 13.0225 47.2503 13.2969 47.0017C13.8258 48.8734 15.6434 49.4367 17.2816 48.0988L17.2681 48.0933ZM13.5373 46.7785C13.8019 46.5668 14.1267 46.4444 14.4652 46.4286C15.0984 46.5124 15.7424 46.4483 16.3466 46.2414C17.0519 45.8654 17.6152 45.2696 17.9512 44.5446C18.1388 44.1723 18.2969 43.7858 18.4241 43.3888C18.5369 43.1133 18.4907 42.6316 18.619 42.2605C18.897 42.3098 19.179 42.3332 19.4614 42.3306C19.4075 42.5427 19.3429 42.7519 19.2677 42.9573C18.9075 43.8376 18.55 44.7112 18.0958 45.5529C17.2095 47.3162 14.6358 49.6363 13.5508 46.784L13.5373 46.7785ZM50.8697 15.4335C51.4851 16.3048 51.7369 17.3814 51.5718 18.435C51.409 19.4437 51.1626 20.437 50.8353 21.4049C49.4293 25.6462 46.6049 29.5189 43.7706 32.9169C41.1386 36.2183 38.3183 39.3651 35.3236 42.3415C33.7869 43.8151 32.1004 45.1175 30.5795 46.629C29.0587 48.1404 27.6512 49.4707 26.0994 50.7891C25.1174 51.5954 24.0937 52.3496 23.0326 53.0486C22.1574 53.7591 21.1811 54.3352 20.136 54.758C18.5503 55.2388 14.2995 53.6799 14.1079 51.6168C15.5421 51.6212 16.9193 51.056 17.9367 50.0456C20.6231 47.6226 23.8127 43.9699 23.3653 40.1155C26.204 41.5202 30.0542 39.1106 31.8937 37.0314C33.3055 35.4988 35.3866 32.0045 34.397 29.7246C37.3927 30.3621 40.1891 28.0155 41.9831 25.7215C42.9117 24.5253 43.4511 23.0732 43.5286 21.5608C43.5575 20.6418 43.3286 19.733 42.868 18.9371C44.5072 18.5174 45.7378 18.0796 46.7182 16.3549C47.4853 14.9978 47.9894 13.4783 46.7844 12.3576C47.3822 12.3788 47.9663 12.5425 48.488 12.8351C49.4873 13.4942 50.3097 14.3883 50.8831 15.439L50.8697 15.4335ZM28.2824 36.6519C29.2653 36.4424 30.1472 35.9039 30.7824 35.1254C31.6174 34.0629 32.332 32.5274 32.0133 31.1968C32.5292 30.7702 32.9565 30.2469 33.2714 29.6563C33.5712 30.2395 33.6685 30.9058 33.548 31.5502C33.4262 32.2143 33.2081 32.8571 32.9006 33.4583C32.3382 34.689 31.5787 35.8197 30.652 36.8057C28.9145 38.5972 25.9024 40.0711 23.3552 39.8525C23.4802 39.644 23.5901 39.4268 23.684 39.2026C23.8105 38.8321 23.9081 38.4524 23.976 38.0669C24.0909 37.5177 24.057 37.3705 24.6262 37.1876C25.2724 37.042 25.9014 36.8287 26.503 36.5514C27.0837 36.7021 27.6885 36.7363 28.2824 36.6519ZM27.1501 36.0631C27.718 35.5903 28.1926 35.0156 28.5496 34.3687C28.9709 33.6075 28.9465 32.5934 29.7949 32.2267C30.3186 32.0017 30.7793 31.8921 31.2327 31.6854C31.2505 31.8591 31.2473 32.0342 31.2232 32.2071C31.0455 33.2307 30.5823 34.1832 29.887 34.9551C29.4725 35.3446 28.9834 35.6462 28.4492 35.8416C28.0372 35.992 27.6021 36.0689 27.1635 36.0686L27.1501 36.0631ZM33.6441 28.7262C33.733 28.4143 33.7928 28.0947 33.8229 27.7717C33.8766 27.276 33.8076 27.1379 34.1418 26.9923C35.1125 27.0364 36.0666 27.2935 37.004 26.9396C37.8943 26.5259 38.6799 25.917 39.3024 25.158C39.9853 24.5021 40.5155 23.704 40.8553 22.8203C40.9524 22.5014 40.9638 22.1625 40.8886 21.8377C40.7935 21.5913 40.6818 21.3517 40.5543 21.1204C40.9561 20.8168 41.3138 20.4589 41.6172 20.057C41.7761 19.8489 41.9207 19.6302 42.0498 19.4025L42.4959 20.4793C42.6713 21.2442 42.6324 22.0426 42.3836 22.7867C42.0817 23.992 41.4578 25.0925 40.5786 25.9705C38.7898 27.7723 36.7804 29.4997 34.1575 29.3128C34.0231 29.1191 33.8665 28.9418 33.6909 28.7846C33.678 28.7631 33.6623 28.7435 33.6441 28.7262ZM35.0572 26.6922C35.7238 26.4752 36.3354 26.1163 36.8499 25.6402C37.3644 25.1641 37.7696 24.5821 38.0375 23.9344C38.4582 22.9063 38.4248 22.1631 39.5681 21.6896C39.6885 21.6447 39.7982 21.5876 39.9146 21.5332L39.9781 21.6848C40.2947 22.5988 39.8483 23.1143 39.2804 23.8311C38.7115 24.6386 38.0177 25.3504 37.2248 25.9396C36.5487 26.3081 35.8163 26.5624 35.0572 26.6922ZM42.66 18.6401C42.6072 18.5791 42.5485 18.5235 42.4846 18.4743C42.5567 18.2754 42.6186 18.0729 42.67 17.8676C42.8344 17.1975 42.7293 16.3229 43.3336 15.7858C43.6852 15.4825 44.1866 15.3503 44.5654 15.019C45.2189 14.4869 45.7144 13.7864 45.9986 12.9931C46.8422 14.2875 46.3286 15.6385 45.4359 16.8421C44.6962 17.6883 43.7348 18.311 42.66 18.6401ZM44.3865 8.55237C45.0079 9.71032 45.1858 11.0549 44.8871 12.3344C44.551 13.9227 43.4008 14.26 42.2987 15.1505C41.5957 15.7179 41.619 16.5433 41.3914 17.368C41.2601 18.0022 41.0024 18.6035 40.6335 19.1359C40.2647 19.6683 39.7923 20.121 39.2445 20.4668C38.3209 20.9596 37.4606 20.7801 37.1425 21.9601C36.7857 23.2732 36.5047 24.3819 35.2658 25.1851C34.5338 25.67 33.4647 25.4444 32.8573 26.0274C32.1467 26.7093 32.4022 28.1945 31.9735 29.0311C31.3026 30.3255 30.3488 30.7197 29.0619 31.1031C28.7763 31.1619 28.5169 31.3101 28.3212 31.5262C28.1255 31.7423 28.0038 32.0152 27.9737 32.3052C27.7341 33.5795 27.0452 34.7256 26.0321 35.535C25.4823 35.9268 24.8418 36.1722 24.1709 36.2482C23.9076 36.2811 23.6544 36.3701 23.4285 36.5093C22.7991 36.9734 22.9256 37.8724 22.6036 38.5251C22.0848 39.5932 21.2378 40.4671 20.1863 41.0191C20.107 40.9991 20.0235 41.004 19.9471 41.0331C19.8706 41.0621 19.805 41.1139 19.7589 41.1815C19.0782 41.3109 18.3724 40.8495 17.8051 41.3155C17.0654 41.915 17.0945 43.3782 16.6338 44.1781C16.4386 44.5441 16.1429 44.8467 15.7816 45.0505C15.4202 45.2542 15.0081 45.3505 14.5938 45.3281C14.21 45.2982 13.8239 45.3338 13.4521 45.4335C12.643 45.7614 12.1527 46.5571 11.4851 47.0762C11.2891 47.2511 11.0569 47.3804 10.8049 47.4548C10.553 47.5292 10.2877 47.547 10.0281 47.5068C9.76852 47.4665 9.52103 47.3693 9.30343 47.2221C9.08583 47.0749 8.90353 46.8814 8.76961 46.6554C8.40388 46.1684 7.73995 45.1829 7.86765 44.5448C8.49628 44.4916 9.12942 44.5463 9.7396 44.7068C10.2758 44.7701 10.8192 44.6938 11.3171 44.4852C11.8149 44.2765 12.2503 43.9426 12.581 43.516C13.3596 42.5662 13.9453 41.4735 14.3053 40.2992C14.54 39.6105 14.834 38.9433 15.1839 38.3053C15.9162 37.091 16.8753 37.2402 18.014 36.8354C19.092 36.4489 20.0188 35.729 20.6598 34.7801C21.5959 33.3746 21.9279 31.4316 23.2096 30.3322C24.2007 29.4826 25.5141 29.1493 26.5227 28.3147C27.6358 27.3035 28.4799 26.0315 28.979 24.613C29.2095 23.8823 29.5643 23.1968 30.0278 22.5867C30.6848 21.9259 31.4004 21.326 32.1658 20.7944C33.2847 20.0353 34.2623 19.0868 35.0548 17.9914C35.8592 16.6968 36.1137 15.0201 37.1301 13.8593C37.6009 13.3224 38.2771 13.0891 38.7839 12.5984C39.2397 12.1009 39.5768 11.5066 39.7698 10.8602C40.0642 9.88388 40.5248 8.96573 41.1315 8.1461C41.4584 7.73074 41.8134 7.34257 42.1308 6.93118C42.9784 7.37212 43.8552 7.68385 44.3865 8.55237ZM41.4479 5.781C40.7816 6.83409 39.803 7.6339 39.1957 8.73467C38.5883 9.83543 38.5031 11.0792 37.3907 11.9184C36.5216 12.4845 35.8048 13.2552 35.3031 14.1629C34.7584 15.1873 34.4837 16.3379 33.8987 17.3458C32.5935 19.5574 29.8255 20.5114 28.5457 22.7569C28.0437 23.6576 27.7648 24.6653 27.2629 25.566C26.5351 26.8072 25.4339 27.787 24.1163 28.3655C23.2056 28.7236 22.3793 29.267 21.6899 29.9614C20.9731 30.9692 20.3754 32.0567 19.9087 33.202C19.6532 33.7793 19.284 34.2992 18.823 34.7306C18.362 35.1619 17.8187 35.496 17.2257 35.7127C16.1508 36.0573 15.2899 36.1287 14.5353 37.0907C13.1091 38.9076 13.1541 41.7893 11.2373 43.2329C10.0949 44.1069 8.92381 43.1335 7.69164 43.4216C6.74329 43.7532 5.93132 44.389 5.38221 45.2301C4.93185 45.8494 4.37136 46.3806 3.72874 46.7971C3.34562 46.9855 3.1721 47.7931 3.02235 46.2413C3.0547 45.9056 3.13166 45.5757 3.25118 45.2602C3.39751 44.6533 3.54109 44.0531 3.71431 43.4572C3.82694 42.8635 4.01545 42.2868 4.27521 41.7412C4.88797 41.6275 5.48698 41.4492 6.06221 41.2095C8.2745 40.3352 10.3338 39.1151 12.1632 37.5949C16.0042 34.4598 19.3199 30.5371 22.5211 26.7793C25.9918 22.7082 29.6253 18.8527 32.789 14.554C34.237 12.7473 35.5352 10.8254 36.6705 8.8075C37.3689 7.4459 38.1596 5.49446 37.923 3.82875C38.7379 3.35749 39.6065 2.98599 40.5102 2.72225C42.7848 2.26449 42.117 4.72118 41.4562 5.76084L41.4479 5.781Z" fill="#004422"/>
</svg>
