<svg width="3" height="3" viewBox="0 0 3 3" fill="none" xmlns="http://www.w3.org/2000/svg">
<path d="M0.59815 2.68969C0.858108 2.88654 1.18139 2.99746 1.50281 3.00009C1.82771 2.98327 2.12085 2.86296 2.32941 2.66083C2.48349 2.52274 2.58836 2.34647 2.63345 2.14977C2.67855 1.95308 2.66227 1.74291 2.58627 1.54046C2.61718 1.36931 2.60727 1.19008 2.55712 1.01368C2.50698 0.837288 2.41766 0.667431 2.2946 0.514461C2.18167 0.375823 2.03731 0.25809 1.87252 0.170238C1.70773 0.0823875 1.52685 0.026733 1.3437 0.00752682C1.16055 -0.0116796 0.979951 0.00606689 0.815667 0.0594093C0.651382 0.112752 0.507747 0.200282 0.395725 0.31533C0.155538 0.570032 0.0223401 0.89555 0.0150855 1.24556C-0.0226555 1.49597 0.0106966 1.75825 0.112269 2.00983C0.213841 2.2614 0.380594 2.49473 0.59815 2.68969Z" fill="#004422"/>
</svg>
