<svg width="42" height="37" viewBox="0 0 42 37" fill="none" xmlns="http://www.w3.org/2000/svg">
<path d="M23.5533 2.91971C22.3003 3.09418 21.901 3.84192 20.7403 2.76472C20.1177 2.10372 19.4162 1.52104 18.6516 1.02979C17.1373 0.170798 15.6346 -0.37459 13.9636 0.308344C12.4291 0.923599 12.0628 2.21763 11.748 3.63308C11.4054 3.32927 11.0345 3.0586 10.6405 2.82474C10.1832 2.62858 9.70597 2.4825 9.21732 2.38909C8.68292 2.2512 8.12508 2.23231 7.58364 2.33378C7.0422 2.43524 6.53053 2.65455 6.08518 2.97604C4.70546 4.08702 3.85538 6.69648 5.30946 8.06361C3.23898 9.53281 0.994943 11.0082 0.305322 13.5675C-0.0153012 14.6255 -0.0845647 15.7443 0.10299 16.8358C0.299452 17.8321 0.83936 18.7304 1.62932 19.3753C2.41524 20.1524 2.04804 20.8978 1.77049 21.8421C1.57679 22.3964 1.4604 22.9749 1.42458 23.5614C1.43831 24.7235 1.73327 25.8666 2.28444 26.8937C2.74094 27.7967 3.43758 28.5585 4.29814 29.0958C5.15871 29.6332 6.15007 29.9253 7.16378 29.9404C7.30711 30.3311 7.31722 30.9143 7.43808 31.2649C7.63029 31.8196 7.88482 32.3511 8.19683 32.8494C8.84528 33.9199 9.80279 34.772 10.9438 35.2938C12.0999 35.8028 13.398 35.8882 14.6074 35.5347C15.8167 35.1813 16.8588 34.412 17.5486 33.3635C17.893 32.8191 18.1751 32.2379 18.3898 31.6307C18.536 31.2735 18.5065 30.3195 18.7388 30.0748C18.9711 29.8301 20.0912 29.8097 20.4658 29.6541C20.7354 29.5326 20.9876 29.3762 21.2159 29.1889C23.9744 30.2559 26.7804 31.1879 29.4332 32.5513C31.1211 33.4041 32.8117 34.2503 34.4604 35.1798C35.1648 35.5604 35.8406 35.9918 36.4822 36.4704C36.6081 36.6043 36.7638 36.7068 36.9368 36.7695C37.1097 36.8322 37.295 36.8534 37.4773 36.8312C37.5897 36.8193 37.6964 36.777 37.786 36.7088C37.8756 36.6406 37.9445 36.5492 37.9854 36.4446C38.3994 35.1446 38.9734 33.9012 39.6945 32.7427C40.3317 31.6985 41.3166 30.7734 41.806 29.6533C42.7024 27.5956 40.2816 26.5201 38.8556 25.6355C36.5489 24.2052 34.0833 23.011 31.8143 21.5266C30.3166 20.5436 28.8915 19.4547 27.5502 18.2684C27.6981 18.2872 27.8474 18.2914 27.9959 18.2809C28.7518 18.2234 29.4836 17.9946 30.1354 17.6121C31.612 16.7832 32.7198 15.4318 33.2399 13.8249C33.5267 13.0665 33.577 12.2387 33.3842 11.4492C33.1915 10.6597 32.7646 9.94507 32.1592 9.39842C31.6114 8.70162 31.1145 7.96672 30.6724 7.19941C30.089 6.40792 29.4456 5.66194 28.7479 4.96803C27.3801 3.67485 25.5398 2.64382 23.5533 2.91971ZM29.0395 20.9934C31.103 22.4748 33.2603 23.8218 35.4978 25.0259C36.5809 25.6467 37.6628 26.2516 38.7082 26.9264C39.1905 27.1944 39.65 27.5012 40.0821 27.8438C40.8018 28.5166 40.7104 29.1201 40.1588 29.8982C38.9014 31.5342 37.8564 33.322 37.0484 35.2195C36.7849 35.0068 36.5038 34.8169 36.208 34.6517C35.5069 34.2181 34.7709 33.832 34.0334 33.4685C32.4306 32.6737 30.785 31.9077 29.1754 31.1486C26.7785 30.086 24.2839 29.2592 21.7273 28.6801C22.1936 28.1703 22.5133 27.5448 22.6533 26.8687C22.7932 26.1926 22.7481 25.4907 22.5228 24.836C22.9458 25.0941 23.3864 25.3284 23.7815 25.5596C24.9697 26.2465 26.1311 26.9611 27.322 27.6415C28.7391 28.453 30.3998 28.6692 31.3087 27.0181C31.7062 26.3518 31.8644 25.57 31.7575 24.8004C31.5509 24.0132 30.8197 23.7294 30.1635 23.376C29.1961 22.8335 28.2152 22.324 27.2194 21.8316C26.569 21.5071 25.9389 21.1436 25.3326 20.743C25.2261 20.6994 24.9864 20.6013 24.7895 20.4744C25.0859 20.0921 25.3347 19.6754 25.5306 19.2333C25.669 18.7997 25.7488 18.3493 25.7676 17.8941C26.4361 19.1483 28.0186 20.2205 29.0328 20.9907L29.0395 20.9934ZM27.8272 26.8058C27.0937 26.4516 26.4141 26.0036 25.7061 25.6058C24.6089 24.9398 23.44 24.3993 22.2218 23.9948C22.0215 23.5254 21.7791 23.0748 21.4977 22.6484C21.9658 22.4925 22.9885 22.216 23.1546 22.1141C23.516 21.8924 23.8442 21.6212 24.1295 21.3085C24.919 21.8476 25.7559 22.3141 26.6299 22.7023C27.3141 23.044 27.985 23.3803 28.6518 23.7458C29.3185 24.1112 30.6658 24.5235 30.7191 25.4951C30.7153 25.9023 30.5731 26.2955 30.3157 26.6108C30.0582 26.9261 29.7006 27.1448 29.3012 27.2313C28.7746 27.2535 28.2545 27.103 27.8206 26.8031L27.8272 26.8058ZM27.3356 5.45569C28.608 6.43976 29.6741 7.66314 30.4725 9.05571C31.0973 10.2457 32.1658 11.0921 32.031 12.5426C31.9516 13.2979 31.7078 14.0261 31.3168 14.6768C30.9257 15.3274 30.3966 15.8849 29.7662 16.3105C29.1331 16.8085 28.3599 17.0989 27.5524 17.142C26.8425 17.0418 26.1379 16.9056 25.4416 16.7338C25.3205 16.7218 25.1988 16.7483 25.0942 16.8095C24.9895 16.8708 24.9072 16.9636 24.8591 17.0746C24.5662 17.9044 24.7088 18.6577 24.177 19.4825C23.8705 19.9993 23.4641 20.4502 22.981 20.8091C22.4979 21.168 21.9477 21.4279 21.3622 21.5737C20.885 21.695 20.3333 21.7704 20.2021 22.319C20.0709 22.8676 20.7465 23.5533 20.965 24.1214C21.3912 25.2455 21.6641 26.5926 20.8802 27.6154C20.0963 28.6381 19.1736 28.4613 18.1505 28.8148C17.9034 28.8909 17.6856 29.0395 17.5254 29.2412C17.3651 29.4429 17.2701 29.6883 17.2525 29.9453C16.9425 31.216 16.7625 32.3778 15.732 33.3383C13.8548 35.0951 10.9824 34.3444 9.52463 32.4353C8.97209 31.6585 8.58907 30.7758 8.40037 29.8441C8.30261 29.4181 8.26273 28.9076 7.80201 28.7036C7.58225 28.6137 7.31627 28.6747 7.08548 28.6498C6.51045 28.6006 5.94889 28.4467 5.42879 28.1958C4.34929 27.6048 3.54736 26.613 3.19888 25.4379C2.82313 24.3862 2.8177 23.2403 3.18351 22.1887C3.49859 21.404 3.63722 20.5594 3.58967 19.7141C3.43975 18.8266 2.78819 18.614 2.14375 18.0801C1.04588 17.2293 0.848797 15.6971 1.03211 14.4131C1.45498 11.5748 3.63578 9.94998 5.82823 8.3917C6.39258 8.6844 6.74192 7.79267 6.19629 7.4922C5.15562 6.91966 5.6822 5.11984 6.23337 4.41881C6.49391 4.06057 6.85006 3.78224 7.26178 3.61515C7.6735 3.44806 8.12446 3.39882 8.56392 3.47297C9.34933 3.56707 10.1006 3.85065 10.7525 4.29902C11.1431 4.67352 11.6043 4.96723 12.1092 5.16303C12.2749 5.18042 12.4405 5.1329 12.5709 5.03056C12.7013 4.92822 12.7863 4.77913 12.8077 4.61494C12.8942 3.86848 13.0833 3.13785 13.3697 2.44354C13.6429 2.02286 14.0331 1.69057 14.4931 1.48688C14.9531 1.28318 15.4632 1.21682 15.9617 1.29582C17.5438 1.6812 18.9426 2.60604 19.9144 3.90927C20.5361 4.68872 21.1691 5.11762 22.1718 4.83299C22.879 4.50063 23.6477 4.31593 24.4307 4.29023C25.4895 4.38564 26.4977 4.79015 27.3289 5.45297L27.3356 5.45569Z" fill="#004422"/>
</svg>
