<svg width="9" height="15" viewBox="0 0 9 15" fill="none" xmlns="http://www.w3.org/2000/svg">
<path d="M5.9138 0.140001C4.69986 -0.284521 4.01355 0.309145 3.31322 1.21799C3.27127 1.28055 3.2553 1.35683 3.26852 1.43141C3.28173 1.50599 3.32316 1.57332 3.38443 1.61978C3.4457 1.66625 3.52224 1.68839 3.59859 1.68173C3.67493 1.67507 3.74539 1.64011 3.79573 1.58391C4.8645 0.216085 5.89699 0.622521 6.56245 1.54467C6.47547 1.59787 6.40847 1.67726 6.37119 1.77128C5.80314 3.03913 4.07167 3.15699 3.61757 4.4875C3.48823 5.02954 3.47826 5.59434 3.5883 6.14429C3.71354 6.58079 3.7446 7.0368 3.67949 7.48282C3.61438 7.92884 3.45455 8.35491 3.21034 8.73347C2.69193 9.49069 2.42627 10.3906 2.44958 11.3104C2.47289 12.2303 2.78402 13.1252 3.34057 13.8733C3.11235 13.8524 2.89046 13.7841 2.68964 13.6729C2.48882 13.5617 2.31369 13.4101 2.17583 13.2282C1.57468 12.3056 1.17799 11.2708 1.01212 10.1927C0.534834 7.76114 0.65111 5.26213 1.35133 2.90231C1.42445 2.72364 1.12763 2.58614 1.05593 2.78144C-0.0913016 6.10684 -0.485994 9.49948 0.80297 12.8911C1.94418 15.9013 5.14264 15.4691 6.59523 12.9827C8.40982 10.0027 8.94641 6.42053 8.08881 3.01164C7.7862 1.80473 7.19104 0.590424 5.9138 0.140001ZM7.25754 3.09671C7.4849 4.27142 7.54757 5.46866 7.44378 6.65486C7.30698 8.77685 6.63338 10.8231 5.48399 12.6082C5.13402 13.1289 4.62917 13.5297 4.03681 13.757C3.4935 12.848 3.23162 11.8061 3.28381 10.7612C3.43834 9.5408 4.59302 8.78578 4.77287 7.58373C4.81033 7.23595 4.78503 6.88339 4.69814 6.54226C4.48134 5.34639 4.39964 4.58288 5.52194 3.72635C6.21108 3.20605 6.76808 3.16921 7.09993 2.51875C7.16406 2.71691 7.21297 2.9193 7.24629 3.1242L7.25754 3.09671Z" fill="#004422"/>
</svg>
