<svg width="9" height="8" viewBox="0 0 9 8" fill="none" xmlns="http://www.w3.org/2000/svg">
<path d="M7.1602 0.857884C6.42365 0.670692 6.04389 1.18144 5.31352 1.39647C3.9909 1.8069 3.31418 -0.116327 1.91446 0.00561462C0.514727 0.127556 0.23397 2.1253 0.00686333 3.33611C-0.0635741 3.70697 0.428295 3.73694 0.505698 3.36893C0.7227 2.40141 1.16505 0.78383 2.32129 1.25695C2.7286 1.44543 3.06879 1.76245 3.30439 2.1731C3.66855 2.67421 3.95361 3.20958 4.62454 3.17959C4.97378 3.16072 5.17382 2.89046 5.48765 2.81904C6.40098 2.5742 6.93918 2.68974 7.1968 3.68969C7.50975 4.91212 7.52308 6.23083 7.73636 7.49813C7.74499 7.6332 7.79823 7.75455 7.88599 7.83921C7.97375 7.92387 8.08996 7.96597 8.2126 7.95755C8.33525 7.94912 8.45585 7.89075 8.55157 7.79348C8.64728 7.69622 8.71147 7.5668 8.732 7.42972C9.19576 5.54751 9.05432 3.61536 8.33342 1.98506C8.10553 1.43619 7.68485 1.03203 7.1602 0.857884Z" fill="#004422"/>
</svg>
