<svg width="2" height="3" viewBox="0 0 2 3" fill="none" xmlns="http://www.w3.org/2000/svg">
<path d="M0.859133 2.89382C1.03338 2.81128 1.2051 2.65955 1.35174 2.45855C1.49838 2.25756 1.61308 2.0167 1.68077 1.76762L1.76228 1.37444C1.8029 1.32042 1.84106 1.26259 1.87625 1.20172C1.94908 1.06895 1.99288 0.918482 1.99919 0.77931C2.00551 0.640137 1.9739 0.522104 1.91046 0.447952L1.75065 0.309437C1.69363 0.148436 1.58979 0.0430098 1.45621 0.0104962C1.32262 -0.022017 1.16724 0.0203219 1.01563 0.130546C0.857688 0.250596 0.707702 0.410582 0.575457 0.600061C0.443213 0.789541 0.331682 1.00425 0.248158 1.23016C0.109341 1.45563 0.0213004 1.72143 0.00288008 1.97068C-0.00819172 2.20986 0.0129025 2.43327 0.0651096 2.62985C0.134792 2.79632 0.246837 2.90982 0.387733 2.95666C0.528629 3.0035 0.692352 2.98167 0.859133 2.89382Z" fill="#004422"/>
</svg>
