<svg width="28" height="9" viewBox="0 0 28 9" fill="none" xmlns="http://www.w3.org/2000/svg">
<path d="M2.98779 0.0624132C2.19865 0.0556914 1.1637 -0.201801 0.521314 0.381128C0.428037 0.462887 0.346734 0.557342 0.279794 0.661721C0.229604 0.667539 0.182813 0.689908 0.146822 0.725289C0.110831 0.76067 0.0876888 0.807039 0.0810718 0.857065C0.0590163 0.971714 0.0458923 1.08791 0.0418108 1.20461C-0.0128091 1.47111 -0.0139065 1.74586 0.0385728 2.01293C0.0910521 2.27999 0.196067 2.53406 0.347536 2.76043C1.35268 4.30997 3.13235 5.0698 4.93007 5.59199C6.72128 6.21509 8.55113 6.72092 10.408 7.10625C13.1164 7.67082 15.8532 8.08879 18.6064 8.35833C20.9163 8.61581 23.9112 9.15362 26.144 8.22549C27.5934 7.62498 28.5624 5.72127 27.6366 4.30693C26.4173 2.44845 23.0512 2.43064 21.1241 2.10848C18.0456 1.63925 14.9524 1.32211 11.8583 0.949234C8.91925 0.495571 5.95816 0.199539 2.98779 0.0624132ZM9.36698 1.50282C12.1014 1.94194 14.8728 2.17481 17.6291 2.59917C20.1764 2.95379 23.1117 3.09566 25.5061 4.07543C26.4151 4.44736 27.1774 4.9648 26.8796 6.06025C26.768 6.40386 26.5665 6.71133 26.2959 6.95081C26.0252 7.1903 25.6953 7.35309 25.3403 7.42234C24.0454 7.70834 22.7153 7.80323 21.3923 7.70397C18.8032 7.58425 16.2226 7.32001 13.6627 6.91248C11.0189 6.51137 8.41411 5.88453 5.87703 5.03883C4.44646 4.54832 1.90049 3.82272 0.935758 2.32923C0.937218 2.03353 1.00512 1.74202 1.13445 1.47618C1.26379 1.21034 1.45126 0.976961 1.68304 0.793253C2.2672 0.756684 2.85373 0.792261 3.42935 0.899175C4.09458 0.91843 4.75178 0.918594 5.41271 0.967708C6.72223 1.0767 8.05278 1.28915 9.37252 1.48928L9.36698 1.50282Z" fill="#004422"/>
</svg>
