<svg width="16" height="16" viewBox="0 0 16 16" fill="none" xmlns="http://www.w3.org/2000/svg">
<g clip-path="url(#clip0_48_6988)">
<path d="M12.3125 14.9998C12.2073 15.0002 12.1046 14.9674 12.0191 14.9061L8.00001 11.9923L3.98094 14.9061C3.89507 14.9684 3.79163 15.0017 3.68555 15.0013C3.57948 15.001 3.47628 14.9668 3.39087 14.9039C3.30546 14.841 3.24227 14.7526 3.21043 14.6514C3.17859 14.5503 3.17975 14.4416 3.21375 14.3411L4.78125 9.69827L0.718744 6.91233C0.630747 6.85205 0.564332 6.76521 0.529203 6.6645C0.494074 6.56379 0.492071 6.45448 0.523488 6.35255C0.554905 6.25062 0.618095 6.16141 0.703825 6.09795C0.789555 6.03449 0.893332 6.0001 0.999994 5.99982H6.01188L7.52438 1.34513C7.55696 1.24464 7.62054 1.15704 7.70599 1.09492C7.79143 1.0328 7.89436 0.999339 8.00001 0.999339C8.10565 0.999339 8.20858 1.0328 8.29403 1.09492C8.37947 1.15704 8.44305 1.24464 8.47563 1.34513L9.98813 6.00139H15C15.1068 6.00133 15.2108 6.03548 15.2968 6.09882C15.3828 6.16215 15.4462 6.25136 15.4779 6.35337C15.5095 6.45538 15.5076 6.56483 15.4725 6.66569C15.4374 6.76656 15.3709 6.85353 15.2828 6.91389L11.2188 9.69827L12.7853 14.3398C12.8107 14.415 12.8178 14.4951 12.8062 14.5735C12.7945 14.652 12.7643 14.7265 12.7181 14.791C12.6719 14.8555 12.611 14.9081 12.5405 14.9444C12.47 14.9807 12.3918 14.9997 12.3125 14.9998Z" fill="#FF8610"/>
</g>
<defs>
<clipPath id="clip0_48_6988">
<rect width="15.5044" height="15.5044" fill="white" transform="scale(1.03197)"/>
</clipPath>
</defs>
</svg>
