<svg width="11" height="15" viewBox="0 0 11 15" fill="none" xmlns="http://www.w3.org/2000/svg">
<mask id="mask0_48_8196" style="mask-type:alpha" maskUnits="userSpaceOnUse" x="-4" y="-2" width="19" height="20">
<rect x="-3.92883" y="-1.57143" width="18.8571" height="18.8571" fill="#D9D9D9"/>
</mask>
<g mask="url(#mask0_48_8196)">
<path d="M5.5 9.42857C4.84524 9.42857 4.28869 9.1994 3.83036 8.74107C3.37202 8.28274 3.14286 7.72619 3.14286 7.07143V2.35714C3.14286 1.70238 3.37202 1.14583 3.83036 0.6875C4.28869 0.229167 4.84524 0 5.5 0C6.15476 0 6.71131 0.229167 7.16964 0.6875C7.62798 1.14583 7.85714 1.70238 7.85714 2.35714V7.07143C7.85714 7.72619 7.62798 8.28274 7.16964 8.74107C6.71131 9.1994 6.15476 9.42857 5.5 9.42857ZM4.71429 14.9286V12.5125C3.35238 12.3292 2.22619 11.7202 1.33571 10.6857C0.445238 9.65119 0 8.44643 0 7.07143H1.57143C1.57143 8.15833 1.9546 9.08469 2.72093 9.8505C3.48674 10.6168 4.41309 11 5.5 11C6.5869 11 7.51352 10.6168 8.27986 9.8505C9.04567 9.08469 9.42857 8.15833 9.42857 7.07143H11C11 8.44643 10.5548 9.65119 9.66428 10.6857C8.77381 11.7202 7.64762 12.3292 6.28571 12.5125V14.9286H4.71429ZM5.5 7.85714C5.72262 7.85714 5.90936 7.78171 6.06021 7.63086C6.21055 7.48052 6.28571 7.29405 6.28571 7.07143V2.35714C6.28571 2.13452 6.21055 1.94779 6.06021 1.79693C5.90936 1.6466 5.72262 1.57143 5.5 1.57143C5.27738 1.57143 5.0909 1.6466 4.94057 1.79693C4.78971 1.94779 4.71429 2.13452 4.71429 2.35714V7.07143C4.71429 7.29405 4.78971 7.48052 4.94057 7.63086C5.0909 7.78171 5.27738 7.85714 5.5 7.85714Z" fill="black" fill-opacity="0.74"/>
</g>
</svg>
