<svg width="19" height="15" viewBox="0 0 19 15" fill="none" xmlns="http://www.w3.org/2000/svg">
<path d="M1.21619e-05 14.2945C1.06767 10.2333 3.46691 6.64243 6.78801 4.13522C8.57094 2.81252 10.5287 1.76397 12.5972 1.0239C13.6501 0.591725 14.7399 0.268048 15.8503 0.057741C16.8674 -0.0459387 17.89 -0.00985114 18.8909 0.165049C19.0656 0.181632 19.0147 0.435243 18.8502 0.430673C11.0436 0.294094 2.95837 6.93535 0.401322 14.4039C0.375859 14.445 0.338342 14.477 0.294346 14.495C0.250351 14.513 0.202225 14.516 0.157136 14.5038C0.112047 14.4915 0.0724008 14.4645 0.0440903 14.4268C0.0157797 14.3891 0.000322589 14.3427 1.21619e-05 14.2945Z" fill="#004422"/>
</svg>
