<svg width="24" height="24" viewBox="0 0 24 24" fill="none" xmlns="http://www.w3.org/2000/svg">
<path d="M12.8484 1.75161C12.6234 1.52665 12.3182 1.40027 12 1.40027C11.6819 1.40027 11.3767 1.52665 11.1516 1.75161L2.75165 10.1516C2.53306 10.3779 2.41211 10.6811 2.41484 10.9957C2.41757 11.3103 2.54378 11.6113 2.76627 11.8338C2.98876 12.0563 3.28973 12.1825 3.60437 12.1852C3.919 12.188 4.22213 12.067 4.44845 11.8484L4.80005 11.4968V19.4C4.80005 19.7183 4.92648 20.0235 5.15152 20.2485C5.37656 20.4736 5.68179 20.6 6.00005 20.6H8.40005C8.71831 20.6 9.02353 20.4736 9.24858 20.2485C9.47362 20.0235 9.60005 19.7183 9.60005 19.4V17C9.60005 16.6818 9.72648 16.3765 9.95152 16.1515C10.1766 15.9264 10.4818 15.8 10.8 15.8H13.2C13.5183 15.8 13.8235 15.9264 14.0486 16.1515C14.2736 16.3765 14.4 16.6818 14.4 17V19.4C14.4 19.7183 14.5265 20.0235 14.7515 20.2485C14.9766 20.4736 15.2818 20.6 15.6 20.6H18C18.3183 20.6 18.6235 20.4736 18.8486 20.2485C19.0736 20.0235 19.2 19.7183 19.2 19.4V11.4968L19.5516 11.8484C19.778 12.067 20.0811 12.188 20.3957 12.1852C20.7104 12.1825 21.0113 12.0563 21.2338 11.8338C21.4563 11.6113 21.5825 11.3103 21.5853 10.9957C21.588 10.6811 21.467 10.3779 21.2484 10.1516L12.8484 1.75161Z" fill="#004422"/>
</svg>
