<svg width="7" height="5" viewBox="0 0 7 5" fill="none" xmlns="http://www.w3.org/2000/svg">
<path d="M2.27612 0.242532C2.38146 -0.0808441 2.83896 -0.0808441 2.94394 0.242532L3.31964 1.3984C3.34259 1.4688 3.38721 1.53013 3.44711 1.57364C3.50702 1.61716 3.57915 1.64062 3.65319 1.64067H4.86875C5.20898 1.64067 5.35013 2.07605 5.07521 2.27619L4.09209 2.99035C4.03206 3.0339 3.98736 3.09534 3.9644 3.16586C3.94144 3.23638 3.9414 3.31236 3.96428 3.3829L4.33997 4.53877C4.44531 4.86215 4.07488 5.13145 3.79926 4.93131L2.81614 4.21715C2.75617 4.17361 2.68396 4.15016 2.60986 4.15016C2.53575 4.15016 2.46355 4.17361 2.40358 4.21715L1.42046 4.93131C1.14518 5.13145 0.775109 4.86215 0.880092 4.53877L1.25578 3.3829C1.27867 3.31236 1.27863 3.23638 1.25567 3.16586C1.23271 3.09534 1.18801 3.0339 1.12798 2.99035L0.14521 2.27654C-0.129713 2.0764 0.0117862 1.64102 0.351665 1.64102H1.56687C1.64097 1.64104 1.71318 1.61762 1.77316 1.5741C1.83314 1.53058 1.87781 1.4692 1.90078 1.39875L2.27647 0.242883L2.27612 0.242532Z" fill="white"/>
</svg>
