<svg width="2" height="2" viewBox="0 0 2 2" fill="none" xmlns="http://www.w3.org/2000/svg">
<path d="M1.32727 1.92598C1.51077 1.84479 1.65297 1.70039 1.72658 1.5205C1.80018 1.34062 1.8 1.13795 1.72605 0.951422C1.68891 0.859448 1.64292 0.770829 1.59694 0.682213L1.65329 0.782051C1.62196 0.72307 1.59707 0.661417 1.57902 0.598103L1.59147 0.659034C1.56936 0.556124 1.52576 0.457549 1.46329 0.36927L1.41789 0.31579L1.45445 0.37263C1.37656 0.230748 1.24884 0.117929 1.09473 0.0548697C0.940625 -0.00818953 0.770458 -0.0172594 0.61545 0.0293234C-0.0732797 0.159321 -0.159966 1.15688 0.235903 1.63296C0.35774 1.79584 0.534524 1.91481 0.734533 1.96851C0.934543 2.0222 1.1447 2.00713 1.32727 1.92598Z" fill="#004422"/>
</svg>
