<svg width="18" height="21" viewBox="0 0 18 21" fill="none" xmlns="http://www.w3.org/2000/svg">
<path fill-rule="evenodd" clip-rule="evenodd" d="M0 8.73366C0 3.90379 4.03608 0 8.91813 0C13.8139 0 17.85 3.90379 17.85 8.73366C17.85 11.1675 16.9649 13.427 15.508 15.3422C13.9008 17.4547 11.9198 19.2953 9.68998 20.74C9.17965 21.0739 8.71907 21.0991 8.15898 20.74C5.91648 19.2953 3.9355 17.4547 2.34203 15.3422C0.884083 13.427 0 11.1675 0 8.73366ZM5.9791 9.00558C5.9791 10.6236 7.2994 11.8962 8.91829 11.8962C10.5382 11.8962 11.8713 10.6236 11.8713 9.00558C11.8713 7.40018 10.5382 6.06566 8.91829 6.06566C7.2994 6.06566 5.9791 7.40018 5.9791 9.00558Z" fill="#004422"/>
</svg>
