<svg width="3" height="3" viewBox="0 0 3 3" fill="none" xmlns="http://www.w3.org/2000/svg">
<path d="M0.674646 2.67992C0.859941 2.81942 1.07912 2.9091 1.30905 2.93951C1.53769 2.97896 1.77095 2.96728 1.99081 2.90538C2.21466 2.83449 2.4128 2.7061 2.56454 2.53361C2.71627 2.36112 2.81605 2.15086 2.85344 1.92478C2.86984 1.82714 2.8739 1.72757 2.86552 1.62822C2.92543 1.54186 2.96558 1.44374 2.98339 1.34015C3.13402 0.497278 2.23003 -0.023373 1.46735 0.000841967C1.188 0.00592526 0.917383 0.0825207 0.682974 0.222853C0.448564 0.363185 0.2587 0.562258 0.132657 0.799874C-0.0323614 1.15855 -0.0438612 1.56998 0.10061 1.94639C0.211221 2.23986 0.411694 2.49603 0.674646 2.67992Z" fill="#004422"/>
</svg>
