<svg width="17" height="17" viewBox="0 0 17 17" fill="none" xmlns="http://www.w3.org/2000/svg">
<g clip-path="url(#clip0_48_4881)">
<path d="M14.7614 3.26526C14.3997 2.9033 13.9701 2.61618 13.4973 2.42028C13.0245 2.22438 12.5178 2.12355 12.006 2.12355C11.4943 2.12355 10.9875 2.22438 10.5147 2.42028C10.042 2.61618 9.6124 2.9033 9.25061 3.26526L8.49978 4.01609L7.74895 3.26526C7.01816 2.53448 6.02701 2.12393 4.99353 2.12393C3.96005 2.12393 2.9689 2.53448 2.23811 3.26526C1.50733 3.99604 1.09678 4.98719 1.09678 6.02068C1.09678 7.05416 1.50733 8.04531 2.23811 8.77609L2.98895 9.52692L8.49978 15.0378L14.0106 9.52692L14.7614 8.77609C15.1234 8.41431 15.4105 7.98475 15.6064 7.51197C15.8023 7.03919 15.9032 6.53244 15.9032 6.02068C15.9032 5.50891 15.8023 5.00217 15.6064 4.52938C15.4105 4.0566 15.1234 3.62705 14.7614 3.26526Z" fill="black" stroke="black" stroke-width="2.07979" stroke-linecap="round" stroke-linejoin="round"/>
</g>
<defs>
<clipPath id="clip0_48_4881">
<rect width="16.6383" height="16.6383" fill="white" transform="scale(1.02174)"/>
</clipPath>
</defs>
</svg>
