<svg width="6" height="5" viewBox="0 0 6 5" fill="none" xmlns="http://www.w3.org/2000/svg">
<path d="M5.43936 3.77872C5.51178 3.32053 5.48055 2.84551 5.34755 2.38223C5.21455 1.91896 4.98253 1.47698 4.66543 1.08289C4.47377 0.776031 4.17864 0.529358 3.8289 0.383724C3.8289 0.383724 3.78274 0.364835 3.75197 0.352244C3.39273 0.154811 2.99333 0.0376921 2.58924 0.0112906C2.11666 -0.0312615 1.65182 0.0461763 1.2462 0.235027C0.840586 0.423878 0.510029 0.716769 0.291144 1.08126C0.0722596 1.44576 -0.0264087 1.86763 0.00606489 2.30014C0.0385385 2.73266 0.200888 3.15895 0.475132 3.53178C1.56625 4.96956 4.83819 5.8405 5.43936 3.77872ZM2.32066 0.821324C2.54321 0.87049 2.77077 0.871167 2.98444 0.823298C3.25152 0.866143 3.50871 0.96773 3.73336 1.11912C3.958 1.2705 4.14322 1.46705 4.27272 1.69146C4.33659 1.82069 4.38721 1.96036 4.44339 2.08644L4.53267 2.32917C4.6211 2.66551 4.65368 3.00781 4.62927 3.34415C4.58463 3.55651 4.46795 3.74529 4.29517 3.88467C4.12239 4.02406 3.90196 4.10725 3.66399 4.12288C3.30389 4.18499 2.92522 4.16594 2.55945 4.06731C2.19368 3.96867 1.85137 3.79331 1.56099 3.55579C1.29283 3.34945 1.0901 3.08063 0.977928 2.78266C0.865758 2.4847 0.849084 2.17068 0.929967 1.87954C1.01085 1.5884 1.18573 1.33294 1.43294 1.14483C1.68015 0.956724 1.98881 0.84424 2.32066 0.821324Z" fill="#004422"/>
</svg>
