<svg width="25" height="25" viewBox="0 0 25 25" fill="none" xmlns="http://www.w3.org/2000/svg">
<path d="M11.4588 4.16682H4.16711C3.61457 4.16682 3.08467 4.38631 2.69397 4.77701C2.30327 5.16771 2.08378 5.69762 2.08378 6.25015V20.8335C2.08378 21.386 2.30327 21.9159 2.69397 22.3066C3.08467 22.6973 3.61457 22.9168 4.16711 22.9168H18.7504C19.303 22.9168 19.8329 22.6973 20.2236 22.3066C20.6143 21.9159 20.8338 21.386 20.8338 20.8335V13.5418" stroke="#004422" stroke-width="2.08" stroke-linecap="round" stroke-linejoin="round"/>
<path d="M19.2713 2.6042C19.6857 2.18979 20.2477 1.95699 20.8337 1.95699C21.4198 1.95699 21.9818 2.18979 22.3962 2.6042C22.8106 3.0186 23.0435 3.58064 23.0435 4.16669C23.0435 4.75274 22.8106 5.31479 22.3962 5.72919L12.5004 15.625L8.33376 16.6667L9.37543 12.5L19.2713 2.6042Z" stroke="#004422" stroke-width="2.08" stroke-linecap="round" stroke-linejoin="round"/>
</svg>
