<svg width="10" height="9" viewBox="0 0 10 9" fill="none" xmlns="http://www.w3.org/2000/svg">
<path d="M3.31508 8.84738C6.74603 9.77486 10.2196 6.31086 9.56217 2.89259C9.2499 1.26287 7.97341 0.474077 6.39212 0.230782C5.54646 -0.0252605 4.65147 -0.0691124 3.78766 0.103177C2.92384 0.275467 2.11829 0.658492 1.44343 1.2178C0.85409 1.75748 0.421585 2.44447 0.190513 3.20794C-0.0405579 3.97142 -0.0618231 4.78375 0.128888 5.56116C0.319599 6.33857 0.715383 7.05292 1.27545 7.63058C1.83553 8.20823 2.5396 8.62827 3.31508 8.84738ZM2.10967 1.94262C2.54041 1.45397 3.1003 1.09467 3.72691 0.904794C4.35352 0.714918 5.02222 0.701926 5.65844 0.867266C6.27143 0.96357 6.85928 1.18214 7.38645 1.50975C7.83307 1.854 8.08889 2.60467 8.47625 3.05387C8.52452 3.09704 8.58629 3.12232 8.65098 3.12537C8.35647 5.83917 5.07496 6.95928 2.64156 6.88412C2.47215 6.87939 2.43033 7.16106 2.58693 7.21706C3.48132 7.5165 4.43841 7.57353 5.35889 7.38222C6.27937 7.19091 7.12971 6.75823 7.8217 6.12908C7.41084 6.74919 6.82913 7.23854 6.1451 7.53948C5.46107 7.84042 4.7032 7.94041 3.96079 7.82768C1.09828 7.24585 0.238262 4.04348 2.10967 1.94262Z" fill="#004422"/>
</svg>
