<svg width="3" height="3" viewBox="0 0 3 3" fill="none" xmlns="http://www.w3.org/2000/svg">
<path d="M0.66016 2.69615C0.805533 2.81641 0.976449 2.90473 1.15965 2.95428C1.34284 3.00382 1.53341 3.01326 1.7166 2.98185C1.89978 2.95045 2.07067 2.87906 2.21601 2.77319C2.36135 2.66733 2.47725 2.52985 2.55474 2.37139C2.61254 2.25845 2.64483 2.13432 2.64965 2.00655C2.81033 1.89993 2.91783 1.73614 2.94954 1.54962C2.98124 1.36309 2.93469 1.16837 2.81966 1.0064C2.73498 0.849487 2.63105 0.70191 2.51014 0.566906C2.46819 0.51546 2.42281 0.466546 2.3743 0.420495C2.32772 0.401438 2.3743 0.420495 2.3743 0.420495C2.26358 0.306635 2.13272 0.212037 1.98827 0.141436C1.81603 0.0614694 1.63042 0.0142972 1.44241 0.00271834C1.2544 -0.00886016 1.06783 0.0153874 0.893746 0.0740263C0.719667 0.132665 0.561619 0.224501 0.428973 0.344092C0.296326 0.463684 0.191789 0.6086 0.121534 0.770249C-0.0156315 1.09284 -0.0373225 1.4542 0.0596653 1.80097C0.156653 2.14775 0.367167 2.46158 0.66016 2.69615Z" fill="#004422"/>
</svg>
