<svg width="5" height="6" viewBox="0 0 5 6" fill="none" xmlns="http://www.w3.org/2000/svg">
<path d="M0.0149836 4.43008C-0.00879552 4.33747 -0.00419878 4.23644 0.0281154 4.1416C0.0604297 4.04677 0.118792 3.96306 0.194734 3.90259C0.270676 3.84212 0.360264 3.80802 0.450538 3.80524C0.540812 3.80246 0.627071 3.83113 0.696852 3.88711C1.77756 4.82063 4.03751 3.89355 4.08177 2.19211C4.11296 1.03331 3.1117 0.6614 2.17442 0.929792C1.82096 1.00101 1.48233 1.16848 1.19075 1.41629C0.899165 1.6641 0.664325 1.98401 0.508528 2.3456C0.484815 2.40356 0.441692 2.4508 0.388672 2.47694C0.335652 2.50309 0.277065 2.50599 0.225797 2.48501C0.174529 2.46403 0.134781 2.42089 0.115298 2.36508C0.0958137 2.30927 0.0981968 2.24536 0.12191 2.18741C0.332933 1.60038 0.694676 1.08047 1.16096 0.694047C1.62724 0.307629 2.17691 0.0722371 2.73979 0.0179187C3.29781 -0.0565106 3.84246 0.103389 4.26192 0.464787C4.68138 0.826186 4.94382 1.36166 4.99535 1.96126C5.02945 2.57352 4.87484 3.19837 4.55573 3.73798C4.23662 4.27758 3.77104 4.70148 3.23186 4.9433C2.17696 5.56039 0.504742 5.86819 0.0149836 4.43008Z" fill="#004422"/>
</svg>
