<svg width="6" height="10" viewBox="0 0 6 10" fill="none" xmlns="http://www.w3.org/2000/svg">
<path d="M2.81064 9.44196C1.59201 8.61765 0.645244 7.46782 0.0929151 6.14137C-0.293648 4.89675 0.603188 3.52852 1.3587 2.62616C1.40461 2.56368 1.45818 2.5069 1.51832 2.45699C1.52383 2.30293 1.47303 2.12581 1.49262 1.9775C1.62237 1.38634 1.985 0.874134 2.50524 0.547234C2.96143 0.192549 3.53312 -0.00011706 4.12899 1.12909e-05C4.72487 0.000138719 5.31055 0.193053 5.79247 0.54794C5.88805 0.604672 5.95768 0.694949 5.98604 0.798902C6.01441 0.902855 5.99918 1.01197 5.94371 1.10225C5.88824 1.19253 5.79707 1.25657 5.69026 1.2803C5.58345 1.30402 5.46976 1.28549 5.37418 1.22876C4.21222 0.573525 2.21645 1.13252 2.53879 2.69478C2.56356 2.77612 2.56531 2.86163 2.54388 2.94229C2.52245 3.02295 2.47863 3.09575 2.41703 3.15301C2.12166 3.38087 1.88494 3.67116 1.7241 4.00282C1.40417 4.44579 1.25828 4.98799 1.31148 5.53614C1.36468 6.0843 1.61366 6.60414 2.0156 7.00627C2.57167 7.65588 3.29047 8.30955 3.37556 9.12598C3.37674 9.19057 3.36044 9.25374 3.3283 9.30928C3.29615 9.36482 3.24926 9.4108 3.19224 9.4427C3.13522 9.47459 3.07004 9.4913 3.00313 9.49117C2.93621 9.49104 2.86987 9.47408 2.81064 9.44196Z" fill="#004422"/>
</svg>
