<svg width="24" height="23" viewBox="0 0 24 23" fill="none" xmlns="http://www.w3.org/2000/svg">
<path fill-rule="evenodd" clip-rule="evenodd" d="M5.91049 19.4909C5.91049 18.6957 6.59049 18.052 7.4305 18.052C8.2605 18.052 8.9405 18.6957 8.9405 19.4909C8.9405 20.2766 8.2605 20.9204 7.4305 20.9204C6.59049 20.9204 5.91049 20.2766 5.91049 19.4909ZM17.1605 19.4909C17.1605 18.6957 17.8405 18.052 18.6805 18.052C19.5105 18.052 20.1905 18.6957 20.1905 19.4909C20.1905 20.2766 19.5105 20.9204 18.6805 20.9204C17.8405 20.9204 17.1605 20.2766 17.1605 19.4909Z" fill="#808080"/>
<path fill-rule="evenodd" clip-rule="evenodd" d="M20.1909 6.01065C20.8009 6.01065 21.2009 6.20945 21.6009 6.64492C22.0009 7.08038 22.0709 7.70519 21.9809 8.27224L21.0309 14.4824C20.8509 15.6762 19.7709 16.5556 18.5008 16.5556H7.59081C6.2608 16.5556 5.1608 15.59 5.0508 14.3413L4.13079 4.02169L2.62079 3.77556C2.22078 3.70929 1.94078 3.34009 2.01078 2.96142C2.08078 2.57329 2.47079 2.31769 2.88079 2.37449L5.2658 2.71529C5.6058 2.77303 5.8558 3.03715 5.8858 3.35902L6.0758 5.47956C6.1058 5.78345 6.3658 6.01065 6.6858 6.01065H20.1909ZM14.1308 10.9324H16.9008C17.3208 10.9324 17.6508 10.6105 17.6508 10.2224C17.6508 9.82478 17.3208 9.51238 16.9008 9.51238H14.1308C13.7108 9.51238 13.3808 9.82478 13.3808 10.2224C13.3808 10.6105 13.7108 10.9324 14.1308 10.9324Z" fill="#808080"/>
</svg>
