<svg width="12" height="5" viewBox="0 0 12 5" fill="none" xmlns="http://www.w3.org/2000/svg">
<path d="M3.18893 3.36404C4.29081 3.06894 5.47417 3.05706 6.61983 3.32959C7.50453 3.54776 8.39849 3.76253 9.27649 4.0355C9.97199 4.25536 11.6717 5.01559 11.9657 3.91329C12.2596 2.81099 10.5919 2.107 9.81644 1.77532C9.07078 1.45707 8.30866 1.17884 7.53394 0.942035C7.09661 0.763085 6.64836 0.630009 6.22113 0.48396C4.88295 -0.0225469 3.43562 -0.13475 2.07956 0.162889C1.06719 0.410272 -0.47557 1.33958 0.141225 2.57722C0.64275 3.61667 2.27072 3.53488 3.18893 3.36404ZM0.944038 1.8054C1.29011 0.652511 3.84649 0.720482 4.83714 0.910094C5.40227 1.02627 5.98675 1.17194 6.57712 1.3416C7.0363 1.48634 7.49717 1.64616 7.95552 1.81213C8.41387 1.97811 9.05555 2.17595 9.58876 2.40851C10.0008 2.56764 10.3899 2.78017 10.7444 3.03959L10.3906 3.75064C9.77778 3.59836 9.18146 3.3809 8.61354 3.1026C8.03494 2.92337 7.4555 2.76538 6.87606 2.60739C6.08199 2.34442 5.24946 2.23122 4.42807 2.27453C4.04466 2.33448 3.66809 2.42075 3.30134 2.53265C2.83552 2.67286 0.519844 3.2068 0.944038 1.8054Z" fill="#004422"/>
</svg>
