<svg width="2" height="3" viewBox="0 0 2 3" fill="none" xmlns="http://www.w3.org/2000/svg">
<path d="M0.347635 2.95619C0.456026 3.01032 0.584229 3.01417 0.719799 2.96738C0.855369 2.92059 0.993695 2.82475 1.12134 2.68916C1.24898 2.55358 1.3616 2.38286 1.44826 2.19359C1.53492 2.00432 1.59268 1.80293 1.61592 1.60899L1.62374 1.50721C1.75046 1.34145 1.84614 1.13327 1.89259 0.922213C1.93905 0.711152 1.93306 0.511913 1.87576 0.362332C1.80145 0.205292 1.69236 0.0944445 1.55802 0.0394768C1.42369 -0.015491 1.2682 -0.012908 1.10512 0.0469975C0.885316 0.124519 0.661834 0.310302 0.474543 0.571202C0.287253 0.832103 0.148331 1.15115 0.0825665 1.47143C-0.00224585 1.79235 -0.0223018 2.10668 0.0250863 2.37213C0.0724745 2.63758 0.185038 2.8414 0.347635 2.95619Z" fill="#004422"/>
</svg>
