<svg width="28" height="9" viewBox="0 0 28 9" fill="none" xmlns="http://www.w3.org/2000/svg">
<path d="M2.9824 0.0592347C2.19354 0.0525214 1.15616 -0.198113 0.51399 0.384631C0.42089 0.463151 0.340409 0.555471 0.275331 0.658369C0.225159 0.664185 0.178384 0.686548 0.142404 0.721918C0.106425 0.757287 0.0832906 0.803641 0.0766755 0.853651C0.0547108 0.970629 0.0406741 1.08897 0.0346548 1.20785C-0.0636126 1.74056 0.0489221 2.29083 0.348571 2.74286C1.35336 4.29189 3.13518 5.04469 4.93228 5.56669C6.72288 6.18957 8.5521 6.69522 10.4083 7.08042C13.1156 7.64584 15.8515 8.06366 18.6039 8.33202C20.9198 8.59217 23.9137 9.12979 26.1458 8.20195C27.5879 7.59884 28.5634 5.69851 27.6378 4.28464C26.419 2.42677 23.054 2.40901 21.1276 2.08696C18.0502 1.61792 14.9581 1.30089 11.865 0.928163C8.92174 0.478979 5.95656 0.188914 2.9824 0.0592347ZM9.35939 1.49912C12.0929 1.93807 14.8633 2.17085 17.6187 2.59504C20.1651 2.94954 23.0994 3.09133 25.4902 4.07754C26.3989 4.44934 27.1569 4.95705 26.866 6.05492C26.7545 6.40353 26.55 6.71505 26.2742 6.95591C25.9985 7.19678 25.6621 7.35786 25.3013 7.4218C24.0069 7.70772 22.6772 7.80259 21.3547 7.70337C18.7665 7.58364 16.1868 7.3195 13.6277 6.9122C10.9899 6.4936 8.39191 5.85347 5.86134 4.99861C4.4285 4.51503 1.88618 3.78292 0.921784 2.28993C0.923246 1.99433 0.991135 1.70291 1.12043 1.43716C1.24972 1.1714 1.43713 0.938104 1.66883 0.754453C2.25279 0.717892 2.83913 0.753447 3.41455 0.860321C4.07678 0.886334 4.73652 0.879725 5.39445 0.935587C6.71556 1.07317 8.04564 1.28553 9.35939 1.49912Z" fill="#004422"/>
</svg>
