<svg width="3" height="3" viewBox="0 0 3 3" fill="none" xmlns="http://www.w3.org/2000/svg">
<path d="M1.14154 2.98217C1.39239 3.0254 1.64872 2.98978 1.87307 2.88051C2.09742 2.77124 2.27804 2.59405 2.38852 2.37483C2.51277 2.11593 2.56511 1.82832 2.54044 1.54001C2.51577 1.25169 2.41493 0.972508 2.24774 0.729635C2.1045 0.500575 1.90123 0.311866 1.65949 0.183525C1.41775 0.0551846 1.14655 -0.00799815 0.874681 0.000680553C0.676372 0.0203431 0.490287 0.0976274 0.340499 0.22254C0.19071 0.347453 0.0840996 0.514245 0.0344688 0.701346C0.00154067 0.80875 -0.0079351 0.922237 0.00662935 1.03463L0.0466552 1.22857C0.00991004 1.37278 -0.00365282 1.52223 0.00643396 1.67168C0.0119313 1.98069 0.128479 2.28097 0.335842 2.52038C0.543205 2.75978 0.828275 2.92317 1.14154 2.98217Z" fill="#004422"/>
</svg>
