<svg width="7" height="12" viewBox="0 0 7 12" fill="none" xmlns="http://www.w3.org/2000/svg">
<path d="M2.55679 9.4115C3.36304 10.2658 4.35151 10.8594 5.09873 11.7841C5.13764 11.8346 5.18726 11.8738 5.24392 11.8988C5.30058 11.9238 5.36282 11.9339 5.42603 11.9284C5.48924 11.9229 5.55179 11.9019 5.60905 11.867C5.66631 11.8321 5.7168 11.7841 5.75679 11.7267C6.25073 10.7225 6.57501 9.64186 6.71259 8.54162C7.16592 6.98209 7.08059 5.3452 6.47358 3.95639C5.70671 2.76293 4.71467 1.77239 3.55602 1.04324C2.77755 0.404283 1.81891 0.0569693 0.805972 0.04691C0.749827 0.0122437 0.684584 -0.00377762 0.617456 0.00061639C0.550329 0.00500946 0.483935 0.0296485 0.425622 0.0718057L0.304011 0.073623C0.252617 0.0852484 0.204221 0.113362 0.165163 0.154287C0.126105 0.195211 0.0981992 0.247038 0.0851014 0.302987C0.0720032 0.358936 0.0743255 0.416402 0.0917558 0.467862C0.109186 0.519321 0.140914 0.562378 0.182793 0.591398C-0.206368 2.73224 0.0294941 4.89184 0.856011 6.75554C1.2757 7.75183 1.85045 8.64938 2.55679 9.4115ZM1.84082 7.08114C0.930786 5.46375 0.552917 3.51725 0.763995 1.53414C1.17621 2.00369 1.71819 2.41459 2.04194 2.80496C3.02997 3.98037 3.79475 5.36571 4.29799 6.89166C4.38443 7.14194 4.7841 6.996 4.73559 6.72685C4.51693 5.51962 4.05219 4.40475 3.3746 3.46202C3.01583 2.95416 2.64758 2.45102 2.26382 1.96732C1.85803 1.58164 1.47444 1.16925 1.11486 0.732081C3.08722 1.33849 4.74724 2.69152 5.81681 4.5645C6.28357 5.77703 6.31819 7.17412 5.91429 8.49865C5.78133 9.25449 5.59385 10.0028 5.35366 10.7365C4.14434 9.51952 2.73392 8.70169 1.84082 7.08114Z" fill="#004422"/>
</svg>
