<svg width="16" height="8" viewBox="0 0 16 8" fill="none" xmlns="http://www.w3.org/2000/svg">
<path d="M14.4588 0.267012C14.0927 1.6622 14.0646 3.65916 12.2104 3.79655C11.3559 3.86404 11.0272 3.25832 10.2902 3.05717C10.202 3.0163 10.1062 2.99452 10.0088 2.99323C9.91135 2.99193 9.81449 3.01115 9.72429 3.04964C9.4492 3.18427 9.33656 3.57078 9.20876 3.82748C8.89983 4.48572 8.5183 5.10711 8.07157 5.67963C7.43746 6.43212 6.54937 7.02661 5.56056 6.60656C4.83276 6.30875 4.62266 5.54299 4.20081 4.96095C4.14362 4.88077 4.06526 4.81862 3.97457 4.78151C3.88388 4.7444 3.78445 4.7338 3.68745 4.75089C2.78907 4.96266 1.94701 6.55705 1.07517 5.35056C0.359827 4.35489 0.744836 2.82067 0.963067 1.71261C1.00151 1.48887 0.643038 1.41943 0.578597 1.63254C0.150799 3.04882 -0.436203 4.9098 0.500622 6.23557C0.648738 6.47744 0.865843 6.66764 1.12371 6.78142C1.38157 6.8952 1.66826 6.9273 1.94647 6.87355C2.33788 6.78251 2.71503 6.63504 3.06633 6.43569C3.24466 6.30706 3.41554 6.16805 3.57807 6.01937C3.86676 6.71447 4.36768 7.29554 5.00822 7.67833C5.65291 8.02336 6.40947 8.09409 7.11256 7.87506C7.77277 7.64223 8.36134 7.23474 8.8167 6.69522C9.15709 6.30997 9.43944 5.87613 9.65443 5.40805C9.83313 4.97133 9.91977 4.38879 10.1488 3.99585C9.94251 3.70285 10.0091 3.70694 10.346 4.01471C10.5488 4.16659 10.7597 4.30707 10.9779 4.43552C11.248 4.60394 11.5445 4.72526 11.8552 4.79448C12.4425 4.87076 13.04 4.7282 13.5366 4.39328C14.8487 3.57831 15.8884 1.68628 15.1828 0.184747C15.0555 -0.0604467 14.5514 -0.0890671 14.4588 0.267012Z" fill="#004422"/>
</svg>
