<svg width="31" height="31" viewBox="0 0 31 31" fill="none" xmlns="http://www.w3.org/2000/svg">
<circle cx="15.457" cy="15.457" r="15.457" fill="#009944"/>
<mask id="mask0_0_69" style="mask-type:alpha" maskUnits="userSpaceOnUse" x="0" y="0" width="31" height="31">
<circle cx="15.5574" cy="15.5577" r="15.3565" fill="#AA1234"/>
</mask>
<g mask="url(#mask0_0_69)">
<path d="M7.75299 24.3008L20.8334 19.7548L27.5805 26.4735L18.7531 35.3009L7.75299 24.3008Z" fill="#004422"/>
</g>
<path d="M18.5714 3.35833C19.9951 5.48241 18.7292 6.5588 17.3084 7.19028C13.2324 8.66853 11.0653 9.2139 10.319 10.1468C9.51531 11.0883 10.362 12.0412 10.9218 12.3283C11.9667 12.9138 13.3569 13.596 13.9214 13.8639C14.5815 14.2514 14.0075 14.6102 13.7779 14.9116C13.5625 15.2848 14.0793 15.5766 14.4237 15.7727C15.0368 16.1272 15.2929 16.3864 15.372 16.5153C15.3955 16.5535 15.411 16.5962 15.4286 16.6374C15.5247 16.8617 15.5176 17.0971 15.5001 17.1936C16.0168 16.5276 15.3709 15.8158 14.9834 15.5431C14.5357 15.1527 15.0265 14.6628 15.3279 14.4667C15.8216 14.1108 15.8158 13.8783 15.7154 13.7204C15.2561 13.1607 14.3902 12.9263 14.0936 12.8306C12.6929 12.3943 12.4766 11.7972 12.5436 11.5533C12.7618 10.9677 13.7252 10.7639 14.1797 10.7352C17.3486 10.3104 18.4996 10.0033 20.2649 8.78334C22.1593 7.31945 19.8392 4.53996 18.5714 3.35833Z" fill="white"/>
<rect x="23.25" y="24.467" width="15.5862" height="0.863438" rx="0.422376" transform="rotate(-180 23.25 24.467)" fill="white"/>
<path d="M22.453 23.3381H8.46084C8.46084 20.7276 10.5771 18.6002 13.1876 18.6002H17.7262C20.3367 18.6002 22.453 20.7276 22.453 23.3381Z" fill="white"/>
<path d="M14.811 18.0979C14.811 17.979 14.9074 17.8826 15.0263 17.8826H15.8874C16.0063 17.8826 16.1027 17.979 16.1027 18.0979C16.1027 18.2168 16.0063 18.3132 15.8874 18.3132H15.0263C14.9074 18.3132 14.811 18.2168 14.811 18.0979Z" fill="white"/>
</svg>
