<svg width="51" height="60" viewBox="0 0 51 60" fill="none" xmlns="http://www.w3.org/2000/svg">
<path d="M49.0839 52.1242C48.2805 50.9776 47.2986 50.0408 46.79 48.7014C46.3973 47.7763 46.3638 46.746 45.8384 45.8812C45.1179 44.9124 44.3403 43.9867 43.5096 43.1091C41.9911 41.1654 41.8006 38.6338 40.5357 36.5415C40.0442 35.7271 39.4567 34.9734 38.7856 34.2967C37.8354 33.496 36.9498 32.6224 36.137 31.6841C34.6314 29.5393 34.5422 26.5905 33.3432 24.2806C32.3727 22.3547 31.1908 20.6252 29.2815 19.5611C27.3613 18.5106 25.1898 18.0056 23.0064 18.1018C22.5734 18.1233 22.1509 18.1568 21.7323 18.1996C21.3552 17.1461 20.8906 16.1251 20.3435 15.1471C19.7726 13.7987 19.0603 12.5131 18.2185 11.3117C17.7078 10.6747 17.2327 10.0828 16.7805 9.4162C16.5956 9.07413 16.3446 8.77139 16.042 8.52546C15.4863 8.16814 15.0788 8.39123 14.6906 8.73686L14.2582 7.79555C13.4678 5.75686 12.3717 3.84706 11.0072 2.13125C10.2632 1.29174 8.94861 -0.377469 7.57485 0.0770326C6.36805 0.500486 5.62464 2.58117 5.70399 3.70671C5.82737 5.59171 7.90803 7.36799 8.96697 8.79499C9.96413 10.1279 10.8618 11.4966 11.8272 12.8318C10.8234 11.779 9.81032 10.73 8.83581 9.6433C7.34128 7.96104 5.62467 6.48716 3.73317 5.26222C2.45418 4.4484 1.21016 3.79414 0.32037 5.47859C-0.498515 7.00861 0.358998 8.47549 1.68817 9.31747C3.28535 10.315 4.85092 11.2766 6.37881 12.3681C5.85536 13.0253 5.36922 13.9118 5.62895 14.6908C5.99705 15.7892 7.55261 16.9073 8.38573 17.661C9.51417 18.6731 10.6087 19.5796 11.7734 20.4842C12.7174 21.3324 13.7755 22.0458 14.9169 22.6036C14.0641 24.5219 13.7966 26.6498 14.1475 28.7249C14.5031 30.6886 15.545 32.4686 17.0891 33.7505C17.9036 34.5118 18.8032 35.2162 19.6391 35.9252C20.6244 36.8544 21.3293 38.0379 21.6736 39.3413C22.3921 41.3552 23.1124 42.9876 24.923 44.2177C26.7335 45.4477 28.8982 46.2647 30.4698 47.9091C31.7832 49.2797 32.7707 50.9756 34.4647 51.9439C36.5177 53.1279 38.647 53.8617 40.517 55.3989C42.1483 56.7466 43.5 58.4005 45.5285 59.1923C46.8498 59.7329 48.9612 60.0771 50.1971 59.0923C51.4331 58.1075 51.0058 56.0981 50.4772 54.7888C50.1159 53.8515 49.6484 52.9575 49.0839 52.1242ZM15.8983 9.49859C16.2012 9.87139 16.4626 10.2756 16.6777 10.7042C17.3686 11.584 17.9875 12.5172 18.5284 13.4947C18.974 14.4414 19.2978 15.3842 19.7397 16.2835C20.0657 16.9505 20.3343 17.6435 20.5427 18.3549C20.2379 18.4212 19.9463 18.493 19.673 18.5953C19.6384 18.0766 19.353 17.6999 19.0269 17.2149C18.4344 16.2692 17.9177 15.2322 17.3928 14.2531C16.5243 12.6059 15.7302 10.8897 14.9559 9.18175C15.1265 9.15378 15.3016 9.16741 15.4662 9.22146C15.6308 9.2755 15.78 9.36836 15.901 9.49204L15.8983 9.49859ZM8.60684 6.5838C7.93192 5.89033 7.34388 5.11839 6.85569 4.28498C6.514 3.48015 7.00525 1.52561 7.8851 1.09067C9.2321 0.418832 11.3856 3.84542 11.9146 4.79569C12.856 6.43449 13.495 8.2094 14.2851 9.91626C15.0753 11.6231 15.7474 13.3734 16.6079 15.0403C17.3006 16.3633 18.0744 17.6201 18.8123 18.9081C18.5401 19.039 18.2764 19.1863 18.0225 19.3493C17.8934 19.2123 17.767 19.0689 17.6405 18.9254C17.3502 18.4474 16.7609 17.6635 16.6898 17.5733C16.1224 16.9054 15.5696 16.2206 15.0594 15.5073C14.0243 14.0595 12.9388 12.6599 11.9292 11.1689C10.9195 9.67803 9.77952 8.03441 8.57649 6.56374L8.60684 6.5838ZM3.7324 9.29784C2.87962 8.78073 1.93592 8.44809 1.39067 7.57525C0.912181 6.85968 0.849607 5.82509 1.79141 5.44608C2.53285 5.16089 3.05475 5.65727 3.72523 6.09214C4.51444 6.61382 5.29276 7.19983 6.02732 7.79851C7.56618 9.16693 9.01083 10.6366 10.3514 12.1973C11.6764 13.6338 13.0278 15.0812 14.3103 16.5461C15.2199 17.7464 16.2282 18.8698 17.3247 19.9046L16.9883 20.2179L16.8499 20.3676C15.47 17.6704 12.6014 15.671 10.2293 13.9284C8.76353 12.8547 7.35118 11.6882 5.85739 10.6642C5.13013 10.1985 4.42681 9.71193 3.70205 9.27778L3.7324 9.29784ZM10.4817 18.1746C9.67589 17.5239 8.93277 16.7764 8.18142 16.0868C7.57132 15.4855 6.56589 14.776 6.4908 13.8663C6.50856 13.4353 6.61323 13.0129 6.7986 12.624C6.85383 12.6608 6.90711 12.7005 6.95822 12.7428C8.6693 14.0086 10.4577 15.1608 12.0849 16.5375C13.0882 17.3422 14.0396 18.2089 14.9335 19.1325C15.4195 19.66 15.8151 20.2576 16.3038 20.7786C16.0252 20.9995 15.7758 21.2544 15.5614 21.5373C15.5411 21.5246 15.5188 21.5155 15.4953 21.5103C13.7289 20.5296 12.0384 19.4188 10.4379 18.1873L10.4817 18.1746ZM49.5778 57.6464C48.9917 58.6831 47.1191 58.2456 46.26 57.9323C44.6173 57.3289 43.4794 56.0759 42.2351 54.9323C43.751 54.3755 45.8583 53.6173 46.406 52.0527C46.4292 52.012 46.4441 51.9672 46.4498 51.9206C46.4556 51.8741 46.452 51.8269 46.4394 51.7816C46.4268 51.7363 46.4053 51.6939 46.3762 51.6568C46.3472 51.6197 46.311 51.5885 46.2699 51.5652C46.2289 51.5419 46.1836 51.5268 46.1367 51.5208C46.0899 51.5148 46.0423 51.518 45.9969 51.5303C45.9514 51.5425 45.9088 51.5636 45.8716 51.5922C45.8344 51.6209 45.8034 51.6566 45.7801 51.6973C45.3182 52.3022 44.7918 52.8556 44.21 53.3479C43.4963 53.8616 42.7439 54.3204 41.9594 54.7202C41.9301 54.6931 41.8993 54.6677 41.8671 54.6442C40.5552 53.4992 39.0952 52.5341 37.5264 51.775C36.7247 51.3781 35.8483 51.0883 35.0734 50.626C34.2393 50.0675 33.5065 49.3721 32.9066 48.5699L32.4946 48.0879C33.7482 47.9371 34.9497 47.5077 36.0102 46.8314C37.0707 46.1552 37.9628 45.2494 38.6205 44.1814C38.634 44.1621 38.6395 44.1383 38.6358 44.115C38.6322 44.0917 38.6197 44.0706 38.6009 44.0561C38.5822 44.0416 38.5586 44.0347 38.535 44.0369C38.5114 44.0391 38.4896 44.0502 38.4741 44.0679C37.3413 45.1153 36.0217 45.9437 34.582 46.5113C34.0818 46.7347 33.5213 46.8416 33.0227 47.0045C32.6752 47.1375 32.3329 47.2955 31.9866 47.4443C31.2537 46.5896 30.399 45.8458 29.4499 45.2368C27.9438 44.2995 26.2082 43.7346 24.8371 42.5238C24.2026 41.9319 23.7085 41.2074 23.3909 40.4033C23.9409 40.6675 24.5392 40.8161 25.1483 40.8396C26.3408 40.7878 27.5142 40.5338 28.618 40.0884C30.6278 39.2292 32.3537 37.1225 33.4098 35.2768C33.578 34.9787 33.113 34.7579 32.9041 34.9858C31.529 36.5557 29.8076 38.5572 27.7693 39.2596C26.8222 39.5866 25.8399 39.8053 24.8416 39.9115C24.2722 39.918 23.7031 39.8694 23.1424 39.7665C22.8152 38.6491 22.3774 37.5661 21.8353 36.5334C20.9999 35.1444 19.5322 34.2075 18.2675 33.1702C18.5265 33.2381 18.7899 33.2871 19.0558 33.317C20.2211 33.4727 21.4051 33.322 22.4896 32.8798C24.5498 32.0106 26.8256 30.0678 27.6421 27.9406C27.7653 27.6394 27.2968 27.333 27.11 27.6388C25.8498 29.5824 24.0343 31.1063 21.8939 32.017C20.8006 32.402 19.6268 32.5124 18.4767 32.3385C18.0122 32.2861 17.5048 32.0937 17.0141 31.9923C16.3286 31.3126 15.8203 30.4773 15.5336 29.5596C15.1861 28.348 15.0497 27.0874 15.1304 25.8326C15.148 25.4882 15.1802 25.1268 15.2282 24.7643C15.7852 23.4981 16.5796 22.3498 17.5692 21.3805C19.0008 19.9177 20.7751 19.5965 22.7484 19.4485C24.5792 19.2993 26.4207 19.6236 28.0939 20.3899C27.8666 20.8043 27.6699 21.2348 27.5052 21.6778C26.9242 22.7186 26.2391 23.6982 25.4603 24.6018C24.0261 26.3539 21.4534 26.9676 19.292 27.1227C19.292 27.1227 19.2679 27.1817 19.2706 27.1751C21.6175 27.264 24.2128 27.1794 26.0609 25.5279C26.8042 24.8612 29.0553 22.5643 29.219 20.9955C30.5716 22.029 31.6496 23.3757 32.3578 24.917C32.7781 25.7923 33.1237 26.7008 33.3907 27.6328C33.315 27.6343 33.2414 27.6572 33.1786 27.6988C32.2359 28.2686 31.6706 29.6501 30.9623 30.4763C29.8311 31.7358 28.4646 32.765 26.9376 33.5075C26.9253 33.5126 26.9155 33.5223 26.9105 33.5346C26.9055 33.5469 26.9056 33.5607 26.9108 33.5729C26.916 33.5852 26.9259 33.595 26.9383 33.6C26.9507 33.6051 26.9646 33.6051 26.9769 33.6C29.9056 32.7193 31.8485 30.9306 33.6576 28.5828C33.8725 29.3205 34.0901 30.0516 34.3647 30.7754C35.0104 32.5149 36.2259 33.578 37.4961 34.8468C37.3327 35.2462 37.1586 35.6718 37.0112 36.0319C36.6838 36.6623 36.3763 37.3009 35.9932 37.9543C35.3995 38.9847 34.5861 39.8727 33.6096 40.5563C32.442 41.2215 31.1941 41.7381 29.8952 42.094C29.805 42.1259 29.8229 42.2708 29.9368 42.2562C31.5031 41.9722 33.0141 41.8796 34.4383 41.1324C35.5148 40.4975 36.4114 39.6027 37.0456 38.5302C37.603 37.6996 38.0676 36.8107 38.4312 35.8791C39.3894 37.1347 40.1169 38.5478 40.5798 40.0528C41.1016 41.7778 42.0155 43.3628 43.2505 44.6847C43.6246 45.09 44.0278 45.4996 44.3832 45.9126C44.3354 45.9504 44.2937 45.9951 44.2595 46.0454C43.554 47.1097 43.1061 48.3176 42.1869 49.2256C41.0904 50.431 39.639 51.262 38.0369 51.6017L38.0155 51.6541C41.2318 51.5408 43.5207 49.6415 45.0347 46.9971L45.0688 47.0645C45.3517 48.0412 45.6901 49.0014 46.0824 49.9406C46.9956 51.6672 48.398 52.9901 49.1478 54.8333C49.4618 55.6116 50.0025 56.8724 49.5778 57.6464Z" fill="#004422"/>
</svg>
