<svg width="9" height="9" viewBox="0 0 9 9" fill="none" xmlns="http://www.w3.org/2000/svg">
<path d="M4.38643 8.41716C6.8577 7.99041 9.87938 4.36481 8.75986 1.64253C8.57402 1.23806 8.30277 0.892845 7.96644 0.632773C7.63011 0.372699 7.23744 0.204515 6.81783 0.140815C6.2398 -0.0507486 5.60798 -0.0468025 5.00112 0.152172C3.45296 0.62297 1.66797 1.34642 0.681718 2.88132C-1.3251 6.00063 1.45673 8.93438 4.38643 8.41716ZM1.25362 3.6635C1.92072 2.30785 3.26957 1.62044 4.50201 1.13167C4.75489 1.02859 5.01334 0.911901 5.27224 0.811281C5.96483 0.65997 6.66278 0.782008 7.23858 1.1551C7.49437 1.31289 7.70817 1.5363 7.86339 1.80799C6.28287 0.36681 3.4299 1.93232 1.97006 3.44027C1.81389 3.59881 2.03316 3.78387 2.1851 3.68715C3.91024 2.62937 6.4684 0.94323 8.09541 2.6656C8.14011 4.27279 6.54363 6.32066 5.3268 6.94293C3.32849 8.01604 -0.157085 6.51034 1.25362 3.6635Z" fill="#004422"/>
</svg>
