<svg width="45" height="37" viewBox="0 0 45 37" fill="none" xmlns="http://www.w3.org/2000/svg">
<path d="M23.4796 35.1788C24.7284 34.1902 25.7183 32.9122 26.3636 31.4553C28.5979 31.1225 30.7355 30.5191 32.9277 30.0075C35.12 29.4958 37.5046 29.0397 39.776 28.3911C41.0726 28.0209 43.049 27.5672 43.814 26.3175C44.6392 24.977 44.8748 23.0489 44.9578 21.5125C45.1979 17.3938 44.4113 13.2812 42.6688 9.5447C42.0588 8.25584 41.2296 6.93892 39.8935 6.35372C38.058 5.68243 36.1448 5.24617 34.1995 5.05532C32.211 4.74972 30.2195 4.48908 28.2135 4.37647C27.1421 4.40398 26.0701 4.36385 25.004 4.25634C24.8325 4.22466 24.6664 4.1798 24.5003 4.13493C24.4047 3.37979 24.1376 2.65678 23.7195 2.02134C23.3014 1.38591 22.7434 0.854927 22.0883 0.469102C21.3132 0.113521 20.4619 -0.043972 19.6106 0.0107219C18.7594 0.0654159 17.9347 0.330592 17.2104 0.782506C16.3738 1.28694 15.5892 2.35922 14.6351 2.53079C13.6811 2.70236 12.7188 2.12387 11.732 2.11266C9.85618 2.07641 8.3708 3.20835 7.13108 4.51009C5.77663 5.94194 5.2982 7.5244 4.86088 9.4008C4.42356 11.2772 2.54407 12.3018 1.49903 13.8602C0.506381 15.3571 -0.0156464 17.117 0.000356684 18.9127C0.125493 20.7174 0.74538 22.452 1.79184 23.9258L1.82475 23.9393C1.38585 24.4078 1.02411 24.9432 0.753068 25.5253C0.51114 26.3456 0.503317 27.217 0.730489 28.041C0.929805 28.8333 1.39529 29.5325 2.04887 30.0214C2.70244 30.5103 3.50434 30.7591 4.32 30.7261C5.09436 30.7119 6.95064 29.9319 7.37402 30.644C7.7974 31.3561 7.91158 32.5421 8.53094 33.3575C9.6351 34.81 11.477 34.9479 13.1194 34.4652C13.7712 34.1652 14.4831 34.0192 15.1999 34.0387C15.7887 34.1745 16.3268 34.4747 16.7517 34.9046C17.3475 35.4797 18.0352 35.951 18.7864 36.2991C20.256 36.8774 22.3117 36.1173 23.4796 35.1788ZM41.3916 9.66098C39.8887 9.5772 38.416 9.21322 36.927 9.05811C35.438 8.903 33.9402 8.84439 32.4563 8.71445C30.9723 8.58452 29.5996 8.57709 28.1641 8.49777C27.0607 8.36183 25.9473 8.32356 24.837 8.38341C24.8085 8.2544 24.7902 8.12335 24.7821 7.99147C24.6996 6.97235 24.7517 5.96216 24.644 4.94815C25.0362 5.06292 25.4395 5.13506 25.8472 5.16333C26.8833 5.2794 27.934 5.24742 28.9566 5.39646C31.0948 5.65554 33.2123 6.02162 35.3159 6.45901C36.5504 6.63345 37.7672 6.91501 38.9527 7.30051C39.9717 7.71578 40.7977 8.49875 41.2674 9.49473C41.3096 9.5043 41.3473 9.58129 41.3916 9.66098ZM42.8543 13.3926C37.9659 12.8135 33.0434 12.5688 28.1211 12.6601C27.8952 11.7454 27.4099 10.9159 26.7236 10.2716C26.3889 10.0009 26.0346 9.75555 25.6635 9.53761C25.401 9.37807 25.1801 9.1584 25.0189 8.89664C26.1709 9.0678 27.3559 9.08311 28.5154 9.14188C30.0512 9.23913 31.5911 9.30731 33.1235 9.48787C34.6559 9.66842 36.2229 9.67067 37.7712 9.85002C38.5023 9.94137 39.2583 10.066 40.0051 10.1945C40.3442 10.2485 41.484 10.5995 41.3293 10.1513C41.3397 10.1937 41.36 10.2331 41.3886 10.2662C41.4171 10.2993 41.453 10.3251 41.4935 10.3417C41.5339 10.3582 41.5776 10.3649 41.6212 10.3613C41.6647 10.3578 41.7068 10.3439 41.744 10.321C42.2062 11.309 42.5779 12.3371 42.8543 13.3926ZM27.7744 17.8837L27.8202 17.7716C28.1022 16.8717 28.2716 15.9403 28.3246 14.9989C28.3689 14.3523 28.3354 13.7027 28.2246 13.0643C30.5232 13.4198 32.9846 13.2646 35.2899 13.4535C37.8645 13.6602 40.4378 14.0204 43.0385 14.1069C43.1765 14.6714 43.2919 15.2344 43.3942 15.792L43.5108 16.5403C42.4627 16.5246 41.4145 16.5766 40.3729 16.6958C39.0948 16.7578 37.8136 16.8648 36.5313 16.9559C34.9448 17.0766 33.3449 17.0609 31.7323 17.3017C30.392 17.3789 29.0612 17.5763 27.7558 17.8915L27.7744 17.8837ZM36.7414 21.1757C34.1894 21.571 31.6128 22.064 29.0483 22.3772C28.9045 21.8071 28.6973 21.255 28.4307 20.7311C28.2203 20.3063 27.8547 19.9412 27.6641 19.5244C27.5528 19.2996 27.4979 19.051 27.5042 18.8001C27.5104 18.5492 27.5777 18.3035 27.7 18.0842C27.7129 18.1117 27.7356 18.1333 27.7636 18.1448C27.7917 18.1562 27.823 18.1567 27.8514 18.1462C29.2689 17.8563 30.8672 17.8945 32.3178 17.7491C33.7684 17.6037 35.1683 17.6761 36.6063 17.6179C38.9482 17.5292 41.3203 17.63 43.6105 17.4047C43.726 18.3812 43.7782 19.3643 43.7666 20.3477C42.6845 20.3293 41.603 20.418 40.538 20.6123C39.2852 20.8002 38.0127 20.98 36.7414 21.1757ZM43.5739 22.6782L43.5042 23.1116C42.6758 23.2576 41.8044 23.5092 40.994 23.7241C39.6938 24.0466 38.373 24.3067 37.0585 24.6079C34.3831 25.2298 31.7085 25.9059 29.0203 26.4841L29.1012 26.2863C29.3778 25.1305 29.3947 23.928 29.1508 22.7655C31.7035 22.5938 34.2818 22.2092 36.8223 21.9171C38.1514 21.7681 39.4897 21.6152 40.8425 21.4836C41.835 21.4556 42.8237 21.3452 43.7982 21.1534C43.7524 21.6655 43.6775 22.1746 43.5739 22.6782ZM26.9287 30.0931C27.5634 28.9363 28.5096 27.9764 28.9591 26.69C33.7747 26.1239 38.5552 25.289 43.2784 24.1893C43.1753 24.684 42.9823 25.1556 42.7091 25.5806C42.0736 26.5138 40.328 26.8541 39.3069 27.1522C37.1798 27.7675 35.0304 28.212 32.9058 28.6898C30.9399 29.1556 28.9664 29.7337 26.9287 30.0931ZM18.1908 34.3926C17.6801 34.0066 17.2216 33.5496 16.6761 33.2109C15.3935 32.4012 14.2822 32.7317 12.9194 33.1132C11.9566 33.3813 10.873 33.5691 10.0255 32.8605C9.32753 32.2747 9.13241 31.2865 8.8842 30.4844C8.53345 29.4633 8.08558 28.6796 6.91936 28.7875C5.18201 28.9387 3.07133 30.115 2.11881 27.9163C1.94528 27.5251 1.85584 27.1018 1.85627 26.6736C1.85671 26.2454 1.94699 25.822 2.12131 25.4308C2.48161 24.9962 2.81088 24.5367 3.10667 24.0558C3.14696 23.946 3.15462 23.8269 3.12873 23.7128C3.10285 23.5988 3.04453 23.4948 2.96082 23.4133C2.8771 23.3318 2.77157 23.2764 2.657 23.2537C2.54242 23.231 2.42369 23.242 2.31517 23.2855C1.21253 21.3409 0.607964 19.3999 1.22811 17.1519C1.75551 15.1999 2.94121 13.4901 4.58391 12.3128C5.95303 11.3334 6.13308 10.1985 6.53726 8.64724C6.77529 7.68318 7.20189 6.77574 7.79238 5.97746C8.38288 5.17917 9.12554 4.5059 9.97736 3.9966C11.2095 3.27681 12.374 3.53006 13.6806 3.84917C14.0949 3.99846 14.5413 4.03505 14.9745 3.95523C16.3292 3.59348 17.1785 2.06269 18.529 1.5607C19.111 1.32566 19.7445 1.2488 20.3654 1.33791C20.9863 1.42703 21.5723 1.67894 22.0643 2.06812C22.8444 2.77226 23.1112 4.03611 23.2456 5.02254C23.3399 5.86364 23.3786 6.71011 23.3616 7.55645C23.2719 8.23084 23.3209 8.91632 23.5057 9.57071C23.7867 10.034 24.2157 10.3885 24.7233 10.577C25.635 10.974 26.3561 11.7108 26.734 12.6314C27.3579 14.3185 26.7744 16.2891 26.3151 17.9564C26.1832 18.2375 26.113 18.5437 26.1092 18.8543C26.1054 19.1648 26.1682 19.4724 26.2933 19.7565C26.7622 20.4665 27.1832 21.2071 27.5535 21.9734C27.8641 22.8128 28.0006 23.7069 27.9544 24.6013C27.9082 25.4956 27.6804 26.3714 27.2849 27.1751C26.9034 27.9196 26.3235 28.5291 25.8816 29.2335C25.6169 29.7294 25.4297 30.2629 25.3266 30.8154C24.5999 32.5519 23.2602 33.9603 21.5633 34.7719C21.0196 35.0219 20.4182 35.1187 19.8239 35.0518C19.2296 34.985 18.665 34.7571 18.1908 34.3926Z" fill="#004422"/>
</svg>
