<svg width="3" height="2" viewBox="0 0 3 2" fill="none" xmlns="http://www.w3.org/2000/svg">
<path d="M0.751868 1.43263C0.895976 1.54508 1.05613 1.65097 1.22806 1.74745C1.38601 1.8269 1.55453 1.8904 1.72278 1.93389C1.89103 1.97739 2.05531 1.9999 2.20509 2.00001C2.37399 1.99516 2.51436 1.95757 2.6118 1.89109C2.70925 1.8246 2.76026 1.73161 2.75964 1.62163L2.7023 1.76176C2.73527 1.72103 2.7546 1.67379 2.75964 1.62163C2.75358 1.53807 2.72445 1.44884 2.67335 1.3573C2.56515 1.19157 2.39319 1.02682 2.17664 0.881396C2.4773 1.09712 2.29665 0.957765 2.17664 0.881396C2.15704 0.823221 2.12714 0.763432 2.08751 0.703146C2.01163 0.592582 1.89903 0.482975 1.75934 0.383674C1.61965 0.284374 1.457 0.198329 1.28529 0.132889C1.11358 0.0674501 0.937908 0.0245589 0.773261 0.00787311C0.608614 -0.00881272 0.459888 0.00120534 0.339771 0.0370701C0.132637 0.116207 0.0135008 0.256009 0.00108006 0.434515C-0.0113407 0.613021 0.0836559 0.820115 0.271148 1.02326C0.403418 1.16622 0.565955 1.30463 0.751868 1.43263Z" fill="#004422"/>
</svg>
