<svg width="45" height="42" viewBox="0 0 45 42" fill="none" xmlns="http://www.w3.org/2000/svg">
<path d="M8.44753 40.5383C8.92627 40.9723 9.4701 41.3271 10.0592 41.5898C13.3189 43.0312 16.9909 40.36 19.47 38.4229C21.1804 37.0273 22.8212 35.5464 24.3864 33.9857C25.2483 33.1547 26.134 32.3949 27.0347 31.5798C27.604 31.1968 28.0998 30.7118 28.4974 30.1491C28.783 29.4512 28.4038 28.9732 28.1977 28.3124C27.975 27.7244 27.9622 27.0741 28.1613 26.4727C28.3605 25.8714 28.7593 25.3563 29.2895 25.0158C30.2481 24.3551 31.3248 24.3114 32.3969 23.9276C33.1993 23.655 33.9346 23.2081 34.551 22.6185C37.5828 19.7929 39.6197 15.9608 42.335 12.8367C43.3144 11.7001 45.1431 10.3731 44.6713 8.64274C44.3516 7.83408 43.8433 7.11731 43.1895 6.55293C42.4777 5.81586 41.7831 5.0551 41.067 4.34701C40.217 3.52263 39.389 2.69961 38.5999 1.80024C38.1863 1.24212 37.7313 0.716782 37.2388 0.2287C37.0681 0.0943617 36.8608 0.0153758 36.6438 0.00195968C36.4269 -0.0114565 36.2102 0.0413111 36.0218 0.153442L35.4148 0.435439C35.0576 0.550613 34.701 0.719829 34.3422 0.857406C33.4546 1.1783 32.6183 1.55863 31.7664 1.94023C29.8658 2.80229 27.9551 3.63973 26.0343 4.45253C25.1721 4.82226 24.3239 5.21309 23.4353 5.51818C22.8048 5.67481 22.2214 5.98843 21.7385 6.43034C21.2165 6.98536 20.9639 7.75057 20.4985 8.35185C19.8596 9.24699 18.9978 9.95581 18.0022 10.4049C17.6764 10.6012 17.3002 10.6925 16.9241 10.6664C16.548 10.6404 16.1902 10.4982 15.8988 10.2591C15.4541 9.91023 14.9521 9.64244 14.4152 9.46756C13.7081 9.34733 13.0241 9.83608 12.4366 10.126C11.8491 10.416 11.1094 10.782 10.4917 11.1826C8.85221 12.1951 7.20897 13.1983 5.5452 14.1778C4.71655 14.6688 3.88301 15.1348 3.0695 15.6628C2.56349 15.9938 2.20416 16.1696 2.06477 16.7506C0.525804 17.9425 0.318453 20.1866 0.0908966 22.092C-0.135135 24.3526 0.0613711 26.6312 0.670161 28.8086C1.83235 33.1581 4.17823 38.5146 8.44753 40.5383ZM35.2164 1.62252C34.6583 2.24731 33.8297 2.83064 33.3945 3.32127C32.5704 4.24465 31.7334 5.16273 30.8694 6.05439C29.0476 7.93766 27.0967 9.72969 25.216 11.5351C21.4755 15.0391 17.6648 18.4375 14.0864 22.1001C10.9955 25.255 7.56559 28.3327 6.06272 32.6524C5.59467 34.1776 5.6629 35.8139 6.25578 37.2817C5.7531 36.7469 5.2926 36.173 4.8784 35.5652C3.64443 33.667 2.67996 31.6012 2.01282 29.4272C1.38338 27.4986 1.04083 25.4831 0.996335 23.4463C0.997364 22.2265 1.10619 21.008 1.3215 19.8054C1.47376 18.8606 1.7974 17.9506 2.27605 17.1214C2.33375 17.1338 2.39417 17.124 2.44561 17.0939C2.49704 17.0638 2.53582 17.0156 2.55442 16.9586C2.79407 16.1881 4.84615 15.5904 5.51623 15.2651C6.18632 14.9397 7.03709 14.45 7.79672 14.0537C9.29116 13.2663 10.7559 12.3668 12.3189 11.7074C12.7619 11.512 13.5754 10.984 14.0995 11.0524C14.6236 11.1208 15.3317 11.9409 15.8948 12.2098C16.9486 12.7025 18.2942 12.1309 19.2465 11.652C20.5158 10.9758 21.5429 9.90958 22.1782 8.60872C22.3207 8.15475 22.5123 7.71758 22.7494 7.30518C23.1113 6.96785 23.5465 6.7217 24.0189 6.58711C24.8168 6.24491 25.6137 5.88691 26.4144 5.53814C28.0287 4.84589 29.6366 4.15099 31.2358 3.42181C32.153 3.02849 33.0448 2.58633 33.955 2.22859C34.3278 2.01987 34.7724 1.80208 35.2164 1.62252ZM9.55192 39.9833C9.51819 39.9112 9.4636 39.8513 9.3953 39.8116L9.3046 39.7745C8.32884 38.7414 7.61959 37.4802 7.23833 36.1004C6.6243 33.9045 7.81827 31.7259 9.01519 29.9097C10.0854 28.3221 11.2983 26.837 12.6379 25.4736C15.3798 22.5986 18.0963 19.6748 20.8987 16.8553C23.7011 14.0359 26.6816 11.2432 29.5633 8.43309C31.0379 6.99189 32.4131 5.47929 33.804 3.9654C34.4269 3.28045 35.0996 2.64354 35.8163 2.06015C36.0827 1.86952 36.3244 1.64551 36.5353 1.39356C36.6952 1.61271 36.8789 1.90309 36.9227 1.94406C37.2138 2.28608 37.5076 2.62152 37.8014 2.95697C39.1371 4.47969 40.5861 5.91041 41.9666 7.39764C42.3441 7.80577 43.2621 8.61185 43.2863 9.23665C43.3104 9.86145 42.8023 10.2531 42.4793 10.6359C41.775 11.4699 41.0556 12.267 40.3848 13.1301C39.0653 14.8577 37.8813 16.6791 36.5683 18.4093C35.5233 19.7803 34.4575 21.5348 32.9394 22.4355C31.4212 23.3363 29.7939 23.1546 28.3946 24.1347C27.804 24.5482 27.3331 25.1142 27.0316 25.7729C26.7301 26.4316 26.6093 27.1585 26.682 27.8766C26.7346 28.1893 26.8169 28.4958 26.9276 28.7919C27.1255 29.3802 27.2307 29.3079 26.9655 29.8451C26.7004 30.3822 25.6069 31.0954 25.0832 31.5806C22.3205 34.155 19.8561 37.1281 16.6663 39.2126C15.0484 40.2647 12.7733 41.4628 10.8272 40.7664C10.3599 40.5822 9.92841 40.3172 9.55192 39.9833Z" fill="#004422"/>
</svg>
