<svg width="28" height="35" viewBox="0 0 28 35" fill="none" xmlns="http://www.w3.org/2000/svg">
<path d="M18.8008 1.23015C18.2191 0.827655 17.5755 0.524963 16.895 0.333864C14.8329 -0.148359 12.6776 -0.107739 10.6171 0.452185C8.55651 1.01211 6.65332 2.07433 5.07353 3.54617C3.66907 5.058 2.64365 6.89026 2.08672 8.88313C1.04782 11.7559 0.392778 14.7516 0.139369 17.7892C-0.324994 21.7754 0.377041 25.7922 2.15721 29.3345C2.8881 30.9231 4.07207 32.2454 5.55754 33.1322C6.92525 33.8626 8.8918 34.7217 10.5081 34.3817C11.9727 35.0188 13.6049 35.168 15.1742 34.8084C16.986 34.2406 18.6514 33.2564 20.0401 31.9325C23.2684 28.7824 25.4802 24.1917 26.8057 19.9526C28.1288 15.8883 28.1703 11.5255 26.9245 7.48062C25.858 4.12563 22.4454 1.00599 18.8008 1.23015ZM3.87299 29.7882C1.68442 26.5097 0.915357 22.2983 1.16211 18.3629C1.19871 17.7181 1.25371 17.0653 1.32065 16.4018C1.65901 14.6307 2.01035 12.865 2.53479 11.139C3.05923 9.41303 3.58782 7.26959 4.6207 5.68956C5.74853 4.11889 7.23472 2.8487 8.94779 1.99134C10.6609 1.13397 12.548 0.715875 14.4423 0.774026C15.6758 0.84722 16.8671 1.23067 17.9096 1.89009C17.9303 2.01572 17.997 2.128 18.0962 2.20456C18.1954 2.28112 18.32 2.31635 18.4451 2.30325C18.6847 2.50687 18.9002 2.73827 19.0871 2.99287C19.3609 3.37932 19.5283 3.83423 19.5724 4.31161C19.6165 4.78898 19.5357 5.2719 19.3382 5.71153C19.1403 6.08013 19.0893 6.51003 19.1959 6.9108C19.605 8.1882 20.9145 9.04229 21.6097 10.1573C22.3049 11.2724 21.7853 12.3017 20.9931 13.2195C20.6377 13.6252 20.2186 13.9272 20.1844 14.5109C20.1061 15.6277 21.2472 16.801 21.6196 17.7606C21.992 18.7203 22.2843 19.7093 21.692 20.5459C21.0128 21.5022 19.7902 21.4909 18.7866 21.5925C18.0866 21.6554 17.0348 21.7451 16.8029 22.5895C16.5219 23.6466 17.6671 24.643 17.8355 25.6201C18.2536 27.9491 16.105 28.4051 14.3805 28.2505C13.4411 28.1766 12.7068 28.3419 12.4052 29.3751C12.1037 30.4083 12.2946 31.2005 11.6676 32.085C11.3581 32.5264 10.919 32.8571 10.4151 33.0283C9.91121 33.1996 9.36933 33.2022 8.86952 33.0359C6.84208 32.6546 5.05031 31.4906 3.8665 29.7856L3.87299 29.7882ZM26.2056 9.27451C27.0049 12.9563 26.7419 16.8126 25.4479 20.3828C24.1397 23.8761 22.6481 27.3177 20.2431 30.2147C18.9928 31.7056 17.4088 32.8694 15.6287 33.6049C14.2947 34.1434 12.8437 34.285 11.4469 34.0129C12.0419 33.6437 12.5373 33.128 12.8864 32.5145C13.2356 31.9009 13.4269 31.2097 13.4425 30.5059C13.4826 29.9634 13.4882 29.3758 14.0774 29.2132C14.4173 29.2064 14.7564 29.2333 15.0899 29.2937C15.8159 29.3131 16.5401 29.1725 17.2129 28.8817C17.7733 28.5838 18.2228 28.1055 18.4901 27.5228C18.7573 26.9401 18.8269 26.2866 18.6878 25.6661C18.5465 25.0983 18.2993 24.565 17.9595 24.0951C17.6149 23.5117 17.2794 22.7767 18.0737 22.372C18.428 22.191 19.141 22.3741 19.5383 22.3659C20.8595 22.3398 22.2302 21.9149 22.8782 20.6276C23.5952 19.19 22.906 17.3012 22.1792 16.0413C21.8916 15.687 21.6552 15.2924 21.4771 14.8691C21.3634 14.3879 21.5882 14.3013 21.8905 13.9515C22.5078 13.334 22.9427 12.5536 23.1445 11.7013C23.3749 10.0646 22.2732 8.96172 21.2466 7.8974C20.7828 7.42039 20.1205 6.85442 20.1931 6.08461C20.2868 5.73409 20.3979 5.38836 20.526 5.04874C20.6566 4.33265 20.5596 3.59674 20.2492 2.94832C20.1615 2.76203 20.0601 2.58298 19.9456 2.41272C21.2275 2.76645 22.4167 3.39325 23.4352 4.25201C24.9229 5.52455 25.9036 7.30564 26.1991 9.27185L26.2056 9.27451Z" fill="#004422"/>
</svg>
