<svg width="9" height="8" viewBox="0 0 9 8" fill="none" xmlns="http://www.w3.org/2000/svg">
<path d="M6.31929 1.2019C7.34544 2.12544 7.23263 4.11677 5.50657 4.16596C4.99871 4.17182 4.55646 3.77719 4.07465 3.83949C3.9645 3.85971 3.86376 3.9248 3.79431 4.02067C3.72485 4.11654 3.69227 4.23544 3.70364 4.35158C3.85109 5.17502 3.86079 6.36943 3.02203 6.858C1.92729 7.50892 1.08703 6.16543 0.540616 5.40767C0.494732 5.34235 0.425164 5.30059 0.347218 5.2916C0.269273 5.2826 0.18932 5.30709 0.124973 5.35969C0.0606254 5.41229 0.0171439 5.48869 0.00408848 5.57208C-0.008967 5.65546 0.00947484 5.73901 0.0553589 5.80433C0.846882 7.04394 1.94904 8.63958 3.63256 7.73357C4.04969 7.47329 4.38773 7.08634 4.59987 6.62628C4.81202 6.16622 4.88779 5.65581 4.81669 5.16568C5.14223 5.23984 5.47818 5.26696 5.81568 5.24632C6.16536 5.26361 6.51884 5.19583 6.8493 5.04812C7.17977 4.9004 7.47856 4.67662 7.72305 4.39375C7.98255 4.05359 8.1706 3.66064 8.2735 3.2435C8.37639 2.82636 8.39153 2.39553 8.31784 1.98236C8.24415 1.56919 8.08347 1.18407 7.8475 0.855035C7.61152 0.526003 7.30621 0.261339 6.95374 0.0802936C6.34375 -0.299036 5.83093 0.765509 6.31929 1.2019Z" fill="#004422"/>
</svg>
