<svg width="9" height="8" viewBox="0 0 9 8" fill="none" xmlns="http://www.w3.org/2000/svg">
<path d="M8.26955 0.20013C7.43738 0.940017 7.10326 2.0369 6.31834 2.81225C6.05794 3.06046 5.45027 3.55358 5.01762 3.42491C4.89668 3.37543 4.80959 3.17854 4.67828 3.13287C4.54696 3.0872 4.32673 2.89227 4.07363 2.88546C3.44472 2.9345 3.48784 3.54072 3.44204 3.99768C3.26987 5.53977 2.07991 7.32654 0.216655 7.33008C0.163299 7.32322 0.11056 7.33638 0.0700339 7.36667C0.0295082 7.39696 0.00451784 7.4419 0.000561817 7.4916C-0.0033942 7.5413 0.0140108 7.5917 0.0489419 7.6317C0.083873 7.6717 0.133478 7.69803 0.186834 7.70489C0.761911 7.82322 1.35048 7.80231 1.89583 7.64417C2.44118 7.48603 2.92492 7.19599 3.30045 6.80201C3.71967 6.43858 4.03613 5.98274 4.22457 5.47085C4.38853 5.09442 4.49274 4.69452 4.53404 4.28326C5.13706 4.77189 6.08209 4.48938 6.61057 4.1251C7.81618 3.22166 8.64579 1.95193 8.97155 0.51157C9.00978 0.426711 9.00948 0.328921 8.97069 0.239715C8.9319 0.150508 8.85779 0.0771855 8.7647 0.0358873C8.67161 -0.00541157 8.56714 -0.0113092 8.47428 0.0194926C8.38142 0.0502935 8.30779 0.115271 8.26955 0.20013Z" fill="#004422"/>
</svg>
