<svg width="11" height="5" viewBox="0 0 11 5" fill="none" xmlns="http://www.w3.org/2000/svg">
<path d="M4.89166 3.57604C3.76243 2.88575 2.26474 3.79442 0.945883 2.9961C-0.210352 2.28715 -0.0631978 1.22906 0.137973 0.208292C0.216699 -0.132262 0.858762 -0.0292954 0.824547 0.329472C0.570999 3.19265 3.65077 1.59243 5.13434 2.49618C6.25615 3.18344 6.9231 3.77586 8.2658 3.16133C8.93762 2.74407 9.57617 2.2863 10.1777 1.79072C10.6451 1.49509 11.1587 2.12366 10.9536 2.51902C10.6698 3.04588 10.2576 3.49944 9.74549 3.84821C9.23338 4.19698 8.63368 4.43261 7.988 4.53872C6.67001 4.77539 5.96687 4.22901 4.89166 3.57604Z" fill="#004422"/>
</svg>
