<svg width="8" height="8" viewBox="0 0 8 8" fill="none" xmlns="http://www.w3.org/2000/svg">
<g clip-path="url(#clip0_0_30)">
<path d="M4.00014 0.00195312C2.32239 0.00195312 0.953979 1.37036 0.953979 3.04811C0.953979 3.71356 1.16485 4.34622 1.56323 4.87578L3.81267 7.90633C3.84543 7.95317 3.93451 8.00005 4.00014 8.00005C4.07045 8.00005 4.15482 7.9485 4.1876 7.90631C4.19693 7.89223 6.46048 4.84297 6.47925 4.81484C6.48393 4.81484 6.48393 4.81484 6.48393 4.81019C6.84948 4.29467 7.04628 3.68544 7.04628 3.04811C7.04629 1.37038 5.67789 0.00195312 4.00014 0.00195312ZM4.00014 4.68834C3.0957 4.68834 2.3599 3.95258 2.3599 3.04811C2.3599 2.14364 3.0957 1.40787 4.00014 1.40787C4.90457 1.40787 5.64037 2.14364 5.64037 3.04811C5.64037 3.95258 4.90457 4.68834 4.00014 4.68834Z" fill="#004422"/>
<path d="M4 0V1.40592C4.90444 1.40592 5.64023 2.14169 5.64023 3.04616C5.64023 3.95062 4.90444 4.68639 4 4.68639V7.99809C4.07031 7.99809 4.15469 7.94655 4.18747 7.90436C4.1968 7.89028 6.46034 4.84102 6.47911 4.81289C6.4838 4.81289 6.4838 4.81289 6.4838 4.80823C6.84934 4.29272 7.04614 3.68348 7.04614 3.04616C7.04616 1.36841 5.67775 0 4 0Z" fill="#004422"/>
</g>
<defs>
<clipPath id="clip0_0_30">
<rect width="8" height="8" fill="white"/>
</clipPath>
</defs>
</svg>
