<svg width="13" height="14" viewBox="0 0 13 14" fill="none" xmlns="http://www.w3.org/2000/svg">
<path d="M11.0989 13.3412C11.568 11.8056 12.663 9.85228 11.1564 8.75208C10.4621 8.24337 9.84867 8.64886 9.10465 8.46535C8.90769 8.44717 8.73207 8.3443 8.61521 8.17869C8.45703 7.89801 8.5811 7.46506 8.6117 7.14933C8.71586 6.36601 8.73698 5.58032 8.67466 4.80827C8.55118 3.73845 8.12634 2.70081 7.05326 2.59861C6.26036 2.51603 5.65876 3.13367 4.97302 3.47501C4.87706 3.51638 4.7751 3.52993 4.67755 3.5143C4.58001 3.49867 4.49039 3.45441 4.41785 3.38605C3.77709 2.70923 3.94546 0.722266 2.53285 1.43131C1.36484 2.0245 0.841683 3.7108 0.369371 4.86507C0.272486 5.10184 -0.0679331 4.98846 0.0120483 4.71886C0.42268 3.15927 0.979401 1.02026 2.52447 0.209923C2.7859 0.052319 3.07751 -0.0192934 3.36134 0.00441077C3.64518 0.0281149 3.90811 0.146041 4.11589 0.34283C4.3982 0.635564 4.63733 0.974807 4.82609 1.35039C4.90471 1.56888 4.97259 1.79271 5.02948 2.021C5.66482 1.50269 6.41605 1.2051 7.17471 1.17119C7.91579 1.17933 8.59849 1.50516 9.07826 2.07967C9.51141 2.65276 9.78066 3.36069 9.85649 4.12572C9.93573 4.67266 9.93485 5.23777 9.85383 5.80041C9.78999 6.32713 9.5127 6.93062 9.48349 7.42831C9.14409 7.60904 9.20905 7.63562 9.66539 7.50274C9.92475 7.46202 10.1846 7.43876 10.4543 7.42821C10.7784 7.4082 11.0985 7.44584 11.4023 7.53968C11.9532 7.76627 12.3901 8.2156 12.63 8.80222C13.2911 10.282 13.1194 12.6477 11.681 13.7349C11.6153 13.7758 11.5424 13.7976 11.4698 13.798C11.3972 13.7984 11.3276 13.7774 11.2683 13.7373C11.2089 13.6971 11.1619 13.6392 11.1321 13.5696C11.1023 13.5 11.0908 13.4211 11.0989 13.3412Z" fill="#004422"/>
</svg>
