<svg width="44" height="40" viewBox="0 0 44 40" fill="none" xmlns="http://www.w3.org/2000/svg">
<path d="M26.6193 3.20578C25.796 3.1093 24.9626 3.15274 24.1544 3.33428C23.5636 3.48327 22.9426 3.46489 22.3611 3.28118C21.7505 2.93435 21.2256 2.45519 20.825 1.8791C19.6477 0.623837 17.9784 -0.206198 16.2799 0.475695C15.3444 0.866417 14.7504 1.76821 13.8744 2.22197C12.9984 2.67573 11.9493 0.993339 11.2673 0.575016C10.5755 0.128496 9.75136 -0.0673355 8.93309 0.0203525C8.11482 0.108042 7.35219 0.473926 6.77308 1.05664C6.14826 1.64898 5.70416 2.40575 5.49194 3.23978C5.43242 3.88131 5.47106 4.52833 5.60654 5.15863C3.9393 5.89204 2.50741 7.06975 1.4678 8.56269C0.522914 10.0983 0.0629387 11.8829 0.147581 13.6847C0.216894 15.6005 1.3225 17.3911 0.735145 19.2625C0.147791 21.134 -0.255039 22.725 0.188639 24.6548C0.590813 26.4205 1.29697 28.1637 2.94827 29.0947C3.78585 29.5689 4.95302 29.5979 5.65909 30.2039C6.36516 30.81 6.52758 32.176 6.98513 33.0671C7.38726 33.8225 7.96933 34.4678 8.67996 34.9461C9.39059 35.4244 10.2079 35.721 11.0598 35.8097C11.8189 35.8192 12.57 35.6569 13.2566 35.3349C13.9432 35.013 14.5474 34.5397 15.0239 33.9508C15.1942 33.9932 15.3616 34.0462 15.5252 34.1095C16.5029 34.567 17.4524 35.0821 18.3689 35.6522C20.1654 36.5884 22.0322 37.3909 23.9086 38.151C25.7011 38.9939 27.5939 39.6047 29.5409 39.9683C31.0134 40.1609 32.4003 39.4443 33.5945 38.6489C37.0269 36.3186 39.8249 33.1738 41.7376 29.4961C42.4628 28.122 43.2468 26.3388 43.2191 24.7572C43.1915 23.1756 41.7213 21.8779 40.7794 20.8814C39.1576 19.158 37.3907 17.5996 35.679 15.9632C33.9673 14.3269 32.487 12.7697 30.7232 11.3363C30.9026 9.73458 30.6846 8.11263 30.0884 6.61327C29.5851 5.20835 28.1816 3.52017 26.6193 3.20578ZM32.281 38.0109C31.3616 38.6262 30.2442 38.8754 29.1485 38.7093C27.9224 38.4294 26.7226 38.0446 25.5624 37.5591C23.5339 36.8296 21.4885 36.0468 19.5037 35.1728C18.527 34.7731 17.6434 34.2027 16.6896 33.766C16.3167 33.5837 15.9273 33.4373 15.5266 33.3288C16.1466 32.515 16.6153 31.6161 17.2141 30.7782L17.4668 30.4639C18.3944 31.0914 19.3784 31.6313 20.406 32.0766C21.6888 32.733 22.9417 33.4622 24.2407 34.0788C25.5397 34.6955 26.9577 35.4382 28.3271 36.0913C29.6965 36.7445 31.1647 37.1751 32.5085 37.8719L32.281 38.0109ZM33.1696 37.4694C33.1479 37.4305 33.1174 37.3971 33.0806 37.372C33.0437 37.3468 33.0016 37.3306 32.9574 37.3245C32.9132 37.3184 32.8682 37.3227 32.826 37.337C32.7838 37.3513 32.7455 37.3752 32.7143 37.4069C33.0802 37.1002 31.9122 36.8079 31.5905 36.6841C30.8863 36.3959 30.1886 36.1104 29.4844 35.8223C28.0293 35.2269 26.6743 34.4249 25.2557 33.7593C23.8371 33.0937 22.4722 32.3728 21.0858 31.6663C20.0474 31.1331 19.0123 30.5162 17.9293 30.073C18.1979 29.9307 18.4956 29.8515 18.7998 29.8413C19.2316 29.8505 19.6634 29.8227 20.0903 29.7583C21.0142 29.5596 21.8613 29.101 22.5315 28.4366C26.7571 31.0438 31.1555 33.3605 35.6961 35.3704C34.9213 36.1471 34.0755 36.8498 33.1696 37.4694ZM24.9386 23.767C25.909 24.7138 26.9622 25.5719 28.0858 26.3311C29.3607 27.3479 30.7383 28.1514 32.0738 29.0769C33.1375 29.8138 34.1957 30.5639 35.2741 31.2837C36.1096 31.9167 36.9827 32.4987 37.8885 33.0265L37.4048 33.6021C37.0354 34.031 36.6405 34.4651 36.2312 34.8778C33.9505 33.6274 31.5097 32.5977 29.1696 31.4545C27.0792 30.4212 25.0127 29.0264 22.8374 28.144C23.2693 27.6541 23.6335 27.1085 23.92 26.5217C24.3634 25.6849 24.6966 24.7943 24.9112 23.8719L24.9573 23.7592L24.9386 23.767ZM37.44 27.9619C38.2675 28.6699 39.1626 29.2952 40.1122 29.8289C39.618 30.6841 39.0669 31.5052 38.4627 32.2867C36.568 30.9081 34.4344 29.772 32.4736 28.4979C31.2478 27.7024 29.9759 27.0195 28.8265 26.1701C27.5587 25.3501 26.3332 24.4666 25.1549 23.5229C25.1313 23.5022 25.101 23.4907 25.0696 23.4907C25.0382 23.4907 25.0079 23.5021 24.9843 23.5227C24.9916 23.2714 25.0598 23.0257 25.1832 22.8068C25.3066 22.5878 25.4814 22.402 25.6927 22.2655C26.0783 22.0056 26.5883 21.8585 26.9818 21.6172C27.479 21.3038 27.9408 20.9378 28.3593 20.5255C30.4136 22.1397 32.4164 23.8797 34.4186 25.5266C35.4095 26.3653 36.4249 27.1443 37.44 27.9619ZM40.4821 29.1525C39.7387 28.5015 38.9401 27.9159 38.0955 27.4025C37.0071 26.5935 35.9415 25.7476 34.8543 24.9546C32.7982 23.4016 30.7456 21.7263 28.6395 20.2766C29.4475 19.3967 30.0508 18.3494 30.4066 17.2094L30.4879 17.0106C32.5177 18.8932 34.4896 20.8603 36.4926 22.7706C37.4749 23.7063 38.4934 24.6104 39.4651 25.534C40.0712 26.1378 40.669 26.8001 41.3261 27.3552L41.158 27.766C40.9296 28.2295 40.7226 28.6785 40.4821 29.1525ZM35.0197 17.0626C36.6444 18.5705 38.2545 20.0571 39.7784 21.6785C40.5112 22.4657 41.8475 23.6545 41.9249 24.7923C41.9323 25.3004 41.8466 25.8054 41.672 26.2823C38.1289 22.9015 34.3982 19.7221 30.4976 16.7593C30.7748 15.4185 30.4482 14.0936 30.492 12.7733C32.0709 14.1465 33.4836 15.6605 35.0197 17.0626ZM28.242 5.95057C29.2995 7.52372 29.7376 9.43042 29.4721 11.304C29.2793 11.8343 29.1668 12.3905 29.1382 12.9542C29.1603 13.7909 29.36 14.592 29.3007 15.4573C29.2281 16.3547 28.974 17.2277 28.5537 18.0236C28.1334 18.8195 27.5556 19.5218 26.8552 20.088C26.1368 20.5573 25.3887 20.9799 24.6156 21.3529C24.3628 21.535 24.1512 21.768 23.9944 22.0369C23.8376 22.3059 23.7391 22.6047 23.7052 22.9143C23.2765 24.5876 22.7376 26.5871 21.3317 27.7291C20.5266 28.3267 19.521 28.5913 18.5241 28.4677C17.9899 28.3641 17.4366 28.4495 16.9593 28.7092C16.4568 29.1754 16.0603 29.7438 15.7963 30.376C15.3751 31.1148 14.9036 31.8239 14.385 32.4981C13.7773 33.4098 12.8835 34.0941 11.8436 34.444C11.2196 34.5282 10.5841 34.4468 10.0009 34.2082C9.41777 33.9696 8.90754 33.5821 8.5215 33.0847C7.61661 31.9409 7.65795 30.2096 6.66955 29.1941C6.33086 28.9037 5.92188 28.707 5.4835 28.6237C4.19496 28.2279 3.0489 27.8441 2.35281 26.5691C1.8799 25.691 1.58494 24.7287 1.48482 23.7374C1.38469 22.746 1.48136 21.7451 1.76929 20.7919C2.21715 19.2424 2.65393 18.1371 1.9688 16.6268C1.14454 14.7629 0.993727 12.6725 1.54213 10.7126C2.16417 8.45314 3.69148 7.09011 5.65013 5.98094C5.72208 6.07454 5.81967 6.14534 5.93106 6.18473C6.04245 6.22412 6.16286 6.23041 6.27763 6.20283C6.39241 6.17526 6.49663 6.11501 6.57764 6.0294C6.65866 5.94378 6.71298 5.83648 6.73402 5.72054C6.83525 5.15087 6.56062 4.58984 6.58186 4.02612C6.63289 3.59918 6.77256 3.18772 6.99196 2.818C7.21136 2.44828 7.50567 2.12842 7.8561 1.87883C9.81417 0.467743 11.0469 2.57336 12.4736 3.59809C13.4509 4.29965 14.2403 3.84911 15.0554 3.14611C15.7109 2.58666 16.3705 1.82775 17.267 1.68406C18.3609 1.51285 19.2075 2.23055 19.9034 2.95622C20.893 3.98773 21.6826 4.84456 23.218 4.8076C23.8604 4.79199 24.4958 4.642 25.1333 4.56252C25.7291 4.49623 26.3321 4.59282 26.8777 4.84197C27.4234 5.09113 27.8912 5.48348 28.2312 5.97708L28.242 5.95057Z" fill="#004422"/>
</svg>
