<svg width="15" height="15" viewBox="0 0 15 15" fill="none" xmlns="http://www.w3.org/2000/svg">
<path d="M9.45313 13.1875L4.18751 7.9375C4.12501 7.875 4.08063 7.80729 4.05438 7.73438C4.02813 7.66146 4.01522 7.58333 4.01563 7.5C4.01563 7.41667 4.02855 7.33854 4.05438 7.26562C4.08022 7.19271 4.12459 7.125 4.18751 7.0625L9.45313 1.79687C9.59897 1.65104 9.78126 1.57812 10 1.57812C10.2188 1.57812 10.4063 1.65625 10.5625 1.8125C10.7188 1.96875 10.7969 2.15104 10.7969 2.35938C10.7969 2.56771 10.7188 2.75 10.5625 2.90625L5.96876 7.5L10.5625 12.0938C10.7083 12.2396 10.7813 12.4194 10.7813 12.6331C10.7813 12.8469 10.7031 13.0317 10.5469 13.1875C10.3906 13.3438 10.2083 13.4219 10 13.4219C9.79168 13.4219 9.60938 13.3438 9.45313 13.1875Z" fill="black"/>
</svg>
