<svg width="3" height="3" viewBox="0 0 3 3" fill="none" xmlns="http://www.w3.org/2000/svg">
<path d="M0.333899 2.32409C0.783207 2.96513 1.69398 3.34797 2.30459 2.55136C2.43739 2.36174 2.53338 2.14622 2.58584 1.91992C2.6383 1.69362 2.64595 1.46202 2.60826 1.24136C2.57056 1.0207 2.48844 0.816331 2.36764 0.642588C2.24684 0.468844 2.0903 0.329935 1.909 0.235604C1.74426 0.177726 1.56514 0.167272 1.38773 0.205185C1.29772 0.105072 1.18107 0.038065 1.05149 0.0120363C0.921902 -0.0139927 0.784767 0.00203799 0.656187 0.0582434C0.500541 0.12929 0.361033 0.242865 0.25189 0.387392C0.142747 0.53192 0.0678683 0.702229 0.0348901 0.880959C-0.0132777 1.1407 -0.0115235 1.40363 0.0400173 1.65238C0.091558 1.90114 0.191714 2.13007 0.333899 2.32409Z" fill="#004422"/>
</svg>
