<svg width="6" height="6" viewBox="0 0 6 6" fill="none" xmlns="http://www.w3.org/2000/svg">
<path d="M4.39099 0.44004C4.44615 1.45262 3.16193 2.01533 2.75382 2.89563C2.34571 3.77592 2.07452 5.89043 0.344453 5.24797C0.0243669 5.11699 -0.140286 5.58963 0.15231 5.71754C1.96494 6.53288 3.08109 5.46775 3.45767 3.98546C3.47871 3.65589 3.57596 3.34118 3.74344 3.06074C3.91093 2.7803 4.14508 2.54006 4.43149 2.35482C4.80096 2.18163 5.11278 1.93175 5.34392 1.62361C5.52055 1.41871 5.60001 1.15468 5.56746 0.880871C5.53491 0.607057 5.39256 0.342189 5.16704 0.135759C4.87187 -0.173203 4.36905 0.0956014 4.39099 0.44004Z" fill="#004422"/>
</svg>
