<svg width="32" height="48" viewBox="0 0 32 48" fill="none" xmlns="http://www.w3.org/2000/svg">
<path d="M3.84942 36.7903C5.07631 37.884 6.55544 38.66 8.154 39.0486C9.91828 39.4831 11.7475 39.5803 13.5435 39.3349C14.071 39.1888 14.6184 39.1241 15.1668 39.1428C15.699 39.2765 15.7372 39.6362 15.8184 40.174C16.0692 41.3164 16.2975 42.4572 16.4501 43.613C16.5745 44.5737 16.6193 45.5401 16.7343 46.5046C16.7853 46.9841 16.7709 47.5288 17.2057 47.8443C18.0684 48.4725 19.7012 47.0305 20.296 46.5017C21.3525 45.5807 21.4277 44.4341 21.179 43.1168C20.9713 42.1879 20.7093 41.2715 20.3944 40.3721C20.1266 39.6773 19.9013 38.9672 19.7198 38.2459C19.9837 38.2838 20.2505 38.2957 20.5163 38.2813C20.9019 38.2071 21.2717 38.069 21.6103 37.8726C22.0018 37.706 22.3768 37.5036 22.7303 37.2682C23.258 36.9413 23.7751 36.6024 24.2843 36.245C24.4877 36.1065 24.6845 35.9653 24.8801 35.8084C25.3925 35.4242 25.8832 35.0125 26.3502 34.575C28.5057 32.5047 30.1303 29.9512 31.0897 27.1258C31.2576 26.621 31.6343 25.6437 30.9425 25.3147C30.7709 25.2583 30.5877 25.247 30.411 25.2819C30.2342 25.3168 30.07 25.3967 29.9343 25.5138C30.184 24.069 30.207 22.593 30.0025 21.138C29.6325 18.7569 28.8296 16.4595 27.6331 14.3579C25.2028 9.61724 21.5017 5.62846 16.9406 2.83419C14.9987 1.63438 12.7089 -0.036514 10.3149 0.000732842C8.11043 0.0467111 6.07518 1.69868 4.74393 3.30996C1.59374 7.12045 0.400339 12.3585 0.102137 17.1831C-0.115289 20.1793 0.0146892 23.1928 0.489528 26.1645C0.831663 28.65 1.59034 31.064 2.73406 33.3063C2.50467 33.2237 2.26469 33.1745 2.02159 33.16C1.89396 33.1701 1.77569 33.2293 1.69187 33.3249C1.60806 33.4205 1.56529 33.545 1.57265 33.672C1.64593 34.7953 3.03201 36.0888 3.84942 36.7903ZM1.36211 20.6345C1.34168 16.23 1.79154 11.5822 3.76282 7.59515C4.81269 5.46352 5.99311 3.48471 8.06387 2.19896C8.57907 1.81087 9.18273 1.55408 9.82253 1.45083C10.4623 1.34759 11.1189 1.40101 11.7354 1.60647C12.7589 1.96909 13.7443 2.43122 14.6773 2.98608C16.7005 4.05343 18.5979 5.34273 20.3335 6.82963C22.1004 8.40558 23.6792 10.1779 25.0384 12.1111C26.5842 14.3372 27.7936 16.7744 28.6279 19.3446C28.9892 20.593 29.1705 21.8848 29.1665 23.1812C29.2244 24.1685 29.2143 25.158 29.1362 26.1429C27.993 27.4247 26.7361 28.6016 25.3803 29.6597C24.742 30.1248 24.0892 30.5687 23.4325 31.0034C23.6656 30.4336 23.8326 29.8368 24.0046 29.3032C24.3985 28.0576 25.2783 26.0017 24.4195 24.7787C24.3264 24.6466 24.1853 24.5554 24.0262 24.5246C23.8672 24.4938 23.7027 24.5258 23.5679 24.6137C22.1606 25.4293 21.3722 27.1863 20.5935 28.542C20.1327 29.3473 19.6679 30.1434 19.1767 30.9287L18.7024 31.7668C18.6757 30.9072 18.6304 30.0553 18.5481 29.1806C18.4777 28.0126 18.5509 26.7199 17.8541 25.7238C17.8019 25.6495 17.7335 25.5879 17.654 25.5436C17.5746 25.4993 17.4861 25.4734 17.3953 25.4679C17.3046 25.4625 17.2139 25.4775 17.1301 25.512C17.0464 25.5465 16.9718 25.5995 16.912 25.667C16.1225 26.4449 16.0908 27.9381 15.9643 28.9644C15.9066 29.4453 15.9576 32.9067 15.7612 32.9715C15.5647 33.0364 14.5085 31.7862 14.3422 31.6264C13.8119 31.0348 13.287 30.4301 12.7729 29.7992C12.1267 29.0378 11.4468 27.8116 10.5796 27.2885C10.4942 27.2488 10.4 27.2318 10.3064 27.2391C10.2127 27.2463 10.1227 27.2777 10.0452 27.33C9.9677 27.3823 9.90539 27.4539 9.86437 27.5376C9.82334 27.6213 9.805 27.7143 9.81116 27.8074C10.041 29.1174 10.409 30.4007 10.9091 31.636C11.146 32.3216 11.3988 33.0061 11.6159 33.6836C11.7127 33.9756 11.8624 34.2891 12.0095 34.6092C10.9475 34.0524 9.92848 33.3907 8.90532 32.758C7.67332 31.9939 6.58601 30.8762 5.29773 30.2497C5.20409 30.2091 5.10091 30.1958 5.00033 30.2114C4.89974 30.2269 4.80591 30.2707 4.72989 30.3376C4.65387 30.4044 4.5988 30.4916 4.57116 30.5888C4.54353 30.686 4.54447 30.7892 4.57387 30.8862C5.15178 32.0014 5.8135 33.0721 6.55336 34.0892C7.03002 34.8118 7.74282 35.4858 8.26721 36.2049C7.12609 35.836 6.04086 35.3122 5.04249 34.6484C4.73708 34.4699 4.42916 34.2598 4.09478 34.0389C2.35172 29.7729 1.42491 25.2267 1.36211 20.6345ZM3.89699 35.013C4.62814 35.4345 5.35661 35.8626 6.11849 36.2279C6.98748 36.6523 8.1231 37.331 9.12708 37.199C9.19576 37.191 9.26177 37.1683 9.32055 37.1325C9.37933 37.0966 9.42949 37.0485 9.46754 36.9913C9.5056 36.9342 9.53066 36.8695 9.54099 36.8016C9.55132 36.7338 9.54666 36.6644 9.52736 36.5982C9.17346 35.6889 8.33889 34.9728 7.8202 34.1642C7.41991 33.557 6.97868 32.9177 6.56265 32.2734C7.20747 32.7361 7.84549 33.2341 8.51048 33.6286C9.8326 34.3989 11.1424 35.256 12.5233 35.9204C12.6008 35.96 12.6878 35.9776 12.7744 35.9713C12.8611 35.9649 12.9441 35.9349 13.0143 35.8844C13.0845 35.834 13.1392 35.7652 13.1722 35.6856C13.2052 35.606 13.2153 35.5187 13.2015 35.4334C13.0085 34.3223 12.6729 33.2395 12.2029 32.2113C11.9152 31.329 11.5557 30.4709 11.2934 29.5455C11.398 29.6918 11.5106 29.8324 11.6309 29.9665C12.2217 30.6364 12.8166 31.3156 13.438 31.9674C14.0595 32.6193 15.2837 34.2517 16.365 34.0061C16.44 33.9805 16.5069 33.9361 16.5594 33.8772C16.6119 33.8184 16.6481 33.747 16.6648 33.67C16.8665 32.4916 16.9675 31.2976 16.9667 30.1008C16.998 29.2154 17.1002 28.3343 17.2725 27.466C17.4018 28.207 17.3982 29.0465 17.4337 29.6956C17.5911 30.8563 17.6468 32.0276 17.6 33.1964C17.5887 33.2766 17.5953 33.3584 17.6193 33.436C17.6434 33.5136 17.6843 33.5852 17.7392 33.6456C17.794 33.706 17.8615 33.7537 17.9369 33.7855C18.0122 33.8172 18.0936 33.8322 18.1751 33.8293C18.6072 33.8303 18.7673 33.59 19.0073 33.2677C19.542 32.5461 19.9911 31.713 20.4742 30.9474C21.3725 29.5259 22.2465 27.3147 23.5905 26.1062C23.4721 27.2118 23.2052 28.2956 22.797 29.3289C22.4757 30.3596 22.11 31.8384 21.166 32.4843C21.108 32.5233 21.0583 32.5733 21.0199 32.6315C20.9814 32.6897 20.955 32.7549 20.942 32.8234C20.929 32.892 20.9298 32.9625 20.9443 33.0309C20.9587 33.0993 20.9866 33.1643 21.0263 33.2222C21.1064 33.3392 21.2299 33.4201 21.3695 33.4471C21.5091 33.4741 21.6533 33.445 21.7706 33.3662C23.6898 32.1588 25.5253 30.8258 27.265 29.3758C28.0352 28.7024 28.7559 27.9754 29.4219 27.2002C29.5685 27.0054 29.724 26.8141 29.8883 26.6265C30.4606 26.0962 30.5069 26.1151 30.0607 26.6206C29.9208 27.0943 29.7537 27.5594 29.5601 28.0137C28.6379 30.0587 27.3815 31.9365 25.8416 33.5718C25.2813 34.1823 24.671 34.7458 24.0169 35.2564C23.3579 35.6213 22.6792 35.9399 21.9924 36.2782C21.2695 36.7312 20.4417 36.9948 19.5859 37.0443C19.3031 37.0334 19.0235 37.1018 18.7792 37.2417C18.6927 37.2991 18.6234 37.3785 18.5785 37.4716C18.5335 37.5648 18.5146 37.6684 18.5237 37.7717C18.5846 38.9817 19.3207 40.3915 19.7253 41.5356C20.0569 42.3444 20.2814 43.1918 20.3929 44.0566C20.4717 45.1286 20.0148 45.6221 19.2155 46.2354C18.7115 46.6179 17.9323 47.4841 17.5968 46.6052C17.4449 45.8275 17.3905 45.0349 17.4349 44.2453C17.3003 42.5923 17.0012 40.9638 16.6941 39.355C16.5285 38.4385 16.2635 38.1237 15.3199 38.0892C13.5852 38.0063 11.9057 38.6189 10.1479 38.366C8.61464 38.1631 7.13478 37.6615 5.79349 36.89C5.10814 36.4893 4.4802 35.9983 3.92697 35.4305C3.75546 35.2457 3.34898 34.8423 3.01937 34.4399C3.32084 34.6091 3.63664 34.8377 3.89699 35.013Z" fill="#004422"/>
</svg>
