<svg width="12" height="3" viewBox="0 0 12 3" fill="none" xmlns="http://www.w3.org/2000/svg">
<path d="M0.03944 1.28483C0.0175541 1.26119 0.00397292 1.23103 0.000745117 1.19891C-0.0024827 1.16679 0.00482924 1.13446 0.021563 1.10682C0.0382968 1.07918 0.0635442 1.05775 0.0934817 1.04576C0.123419 1.03377 0.1564 1.03187 0.187451 1.04037C1.96853 1.76917 4.09372 1.26612 5.89523 0.967771C7.93761 0.647571 9.89594 0.0441414 11.9853 3.21544e-05C11.9853 3.21544e-05 12.0264 0.016842 11.9712 0.034403C9.58755 0.231005 7.39925 1.31829 5.12152 1.9596C3.60051 2.41286 1.27555 2.50505 0.03944 1.28483Z" fill="#004422"/>
</svg>
